<svg xmlns="http://www.w3.org/2000/svg" width="351.645" height="153.41" viewBox="0 0 351.645 153.41">
  <g id="RideCar2" transform="translate(-69.197 -159.14)">
    <g id="freepik--Car--inject-4" transform="translate(69.197 195.16)">
      <path id="Path_115" data-name="Path 115" d="M416.412,275.912h0a16.543,16.543,0,0,1,.69,21.744,23.4,23.4,0,0,1-8.514,6.443l-28.244,12.713-19.961,3.106-261.33-1.668-16.394-3.221A16.671,16.671,0,0,1,69.2,298.461l.173-11.39a4.076,4.076,0,0,1,2.876-3.8l1.15-.345s.978-11.16,7.708-13.691c24.505-10.584,40.784-13.978,81.8-15.7l34.687-20.709s13.978-8.974,27.036-10.124,42.568-1.208,56.086-.4c15.877.92,36.01,8.111,47.285,13.691,8.8,4.372,29.97,15.129,29.97,15.129l11.965,2.013c1.783.058,34.917,2.128,38.713,2.7a7.729,7.729,0,0,1,6.04,5.177c.978,3.164,1.726,14.669,1.726,14.669" transform="translate(-69.197 -221.757)" fill="#2ec4b6"/>
      <path id="Path_116" data-name="Path 116" d="M393.7,240.458c-5.637-2.819-20.824-6.73-29.28-8.283s-25.713-1.783-32.558-1.611-26,.518-36.067,3.394c-5.177,1.5-13.518,5.81-18.408,9.376-1.726,1.266-9.089,7.075-10.757,8.4L253.8,263.7l157.615-4.947s.92-5.465-1.9-8.629S393.7,240.458,393.7,240.458Z" transform="translate(-147.609 -225.477)" fill="#263238"/>
      <path id="Path_117" data-name="Path 117" d="M84.6,318.817l-8-.115c.288-2.128,1.381-7.881,4.774-11.1l10.527.173a2.421,2.421,0,0,1,2.416,2.531,2.463,2.463,0,0,1-.345,1.266l-1.9,3.106A8.463,8.463,0,0,1,84.6,318.817Z" transform="translate(-72.342 -258.22)" fill="#fafafa"/>
      <path id="Path_118" data-name="Path 118" d="M92.115,318.484c.805-3.509,1.9-8.111,4.832-10.584H98.5a2.421,2.421,0,0,1,2.416,2.531,2.463,2.463,0,0,1-.345,1.266l-1.9,3.106A8.611,8.611,0,0,1,92,318.887Z" transform="translate(-78.883 -258.347)" fill="#e0e0e0"/>
      <g id="Group_13" data-name="Group 13" transform="translate(29.113 53.863)" opacity="0.7">
        <path id="Path_119" data-name="Path 119" d="M181.3,358.6a37.847,37.847,0,0,0,.518-12.483c-2.071-17.717-13.633-30.43-31.178-30.718-15.244-.23-27.841,9.319-30.373,26.921a45.687,45.687,0,0,0,.518,15.819Z" transform="translate(-119.808 -315.393)"/>
      </g>
      <g id="Group_14" data-name="Group 14" transform="translate(247.778 55.129)" opacity="0.7">
        <path id="Path_120" data-name="Path 120" d="M563.249,357.692c0-.633-.058-1.323-.115-2.013-.288-22.319-15.3-37.793-33.134-38.081a29.622,29.622,0,0,0-29.97,29.107c-.058,4.947-.288,9.664.288,13.748l42.913.288Z" transform="translate(-499.937 -317.595)"/>
      </g>
      <path id="Path_121" data-name="Path 121" d="M506.8,349.567A25.745,25.745,0,1,0,532.913,324.2h0A25.793,25.793,0,0,0,506.8,349.567Z" transform="translate(-255.072 -265.27)" fill="#263238"/>
      <path id="Path_122" data-name="Path 122" d="M506.8,368.2v.057a25.745,25.745,0,1,0,51.484.748v-.057Z" transform="translate(-255.072 -283.961)" fill="#263238"/>
      <path id="Path_123" data-name="Path 123" d="M520.2,355.33A18.064,18.064,0,1,0,538.492,337.5,18.095,18.095,0,0,0,520.2,355.33Z" transform="translate(-260.765 -270.918)" fill="#fafafa"/>
      <path id="Path_124" data-name="Path 124" d="M538.45,337.5a18.107,18.107,0,0,0-18.35,17.832h0l36.125.518A18.058,18.058,0,0,0,538.45,337.5Z" transform="translate(-260.724 -270.92)" fill="#e0e0e0"/>
      <path id="Path_125" data-name="Path 125" d="M532.4,360.713a10.988,10.988,0,1,0,11.16-10.814h0A10.986,10.986,0,0,0,532.4,360.713Z" transform="translate(-265.947 -276.186)" fill="#263238"/>
      <circle id="Ellipse_2" data-name="Ellipse 2" cx="25.713" cy="25.713" r="25.713" transform="translate(33.619 60.8) rotate(-2.57)" fill="#263238"/>
      <path id="Path_126" data-name="Path 126" d="M129.6,369.3v.058a25.745,25.745,0,0,0,51.484.748v-.058Z" transform="translate(-94.851 -284.428)" fill="#263238"/>
      <path id="Path_127" data-name="Path 127" d="M143,356.473a18.065,18.065,0,1,0,18.35-17.775h0A18.059,18.059,0,0,0,143,356.473Z" transform="translate(-100.544 -271.428)" fill="#fafafa"/>
      <path id="Path_128" data-name="Path 128" d="M161.293,338.7A18.058,18.058,0,0,0,143,356.531l36.125.518a18.034,18.034,0,0,0-17.832-18.35Z" transform="translate(-100.546 -271.429)" fill="#e0e0e0"/>
      <path id="Path_129" data-name="Path 129" d="M155.2,361.813A10.988,10.988,0,1,0,166.358,351h0A11.024,11.024,0,0,0,155.2,361.813Z" transform="translate(-105.726 -276.653)" fill="#263238"/>
      <g id="Group_15" data-name="Group 15" transform="translate(4.314 74.115)" opacity="0.4">
        <path id="Path_130" data-name="Path 130" d="M83.084,355.892c-.058,2.876-1.5,5.177-3.279,5.177s-3.164-2.358-3.106-5.292,1.5-5.177,3.279-5.177S83.141,353.016,83.084,355.892Z" transform="translate(-76.697 -350.6)"/>
      </g>
      <path id="Path_131" data-name="Path 131" d="M640.221,315.889a1.592,1.592,0,0,1-.518.058l-1.438.057c-1.266,0-3.049.058-5.235.173s-4.832.23-7.766.46a64.663,64.663,0,0,0-9.376,1.381,21.85,21.85,0,0,0-4.6,1.611,18.737,18.737,0,0,0-3.8,2.474,65.1,65.1,0,0,0-5.637,5.35,22.167,22.167,0,0,1-4.027,3.336c-.4.23-.805.46-1.266.69-.173.058-.288.173-.46.173,0-.058.633-.288,1.611-.978a22.11,22.11,0,0,0,3.912-3.394,63.833,63.833,0,0,1,5.58-5.407,19.389,19.389,0,0,1,3.854-2.531,22.334,22.334,0,0,1,4.659-1.611,65.437,65.437,0,0,1,9.434-1.381c2.934-.23,5.58-.345,7.766-.345s4.027-.057,5.235-.057h1.438A1.341,1.341,0,0,1,640.221,315.889Z" transform="translate(-293.006 -261.735)" fill="#263238"/>
      <g id="Group_16" data-name="Group 16" transform="translate(240.602 49.136)" opacity="0.5">
        <path id="Path_132" data-name="Path 132" d="M557.145,353.727a.575.575,0,0,0,.288-.23,8.235,8.235,0,0,0,.863-.633,9.063,9.063,0,0,0,2.358-3.336,13.716,13.716,0,0,0,.863-6.443,44.4,44.4,0,0,0-1.726-8.571,43.764,43.764,0,0,0-4.142-9.722A36.205,36.205,0,0,0,548,315.474a31.962,31.962,0,0,0-11.562-6.5,35.917,35.917,0,0,0-14.208-1.208,48.365,48.365,0,0,0-13.863,3.624,29.918,29.918,0,0,0-17.257,17.775,52.127,52.127,0,0,0-2.7,10.182c-.23,1.611-.46,3.106-.575,4.6a24.269,24.269,0,0,0-.173,4.084,8.6,8.6,0,0,0,2.243,5.982,5.606,5.606,0,0,0,3.624,1.783,12.11,12.11,0,0,0,1.438-.115l-.345.115a7.047,7.047,0,0,1-1.093.115,5.753,5.753,0,0,1-3.739-1.783,8.563,8.563,0,0,1-2.3-6.1,24.954,24.954,0,0,1,.173-4.142c.115-1.438.288-2.991.575-4.6a53.083,53.083,0,0,1,2.646-10.3,37.825,37.825,0,0,1,2.531-5.35,31.939,31.939,0,0,1,3.739-5.062,31.2,31.2,0,0,1,11.1-7.536,48.625,48.625,0,0,1,13.978-3.624,36.78,36.78,0,0,1,14.381,1.208,31.075,31.075,0,0,1,11.677,6.615,38.207,38.207,0,0,1,7.708,9.434,46.993,46.993,0,0,1,5.81,18.35,13.992,13.992,0,0,1-.92,6.5,7.949,7.949,0,0,1-2.474,3.336A6.158,6.158,0,0,1,557.145,353.727Z" transform="translate(-487.462 -307.177)" fill="#fff"/>
      </g>
      <path id="Path_133" data-name="Path 133" d="M99.512,355.5a6.62,6.62,0,0,1-.805-.978,19.585,19.585,0,0,0-2.474-2.416,24.635,24.635,0,0,0-10.354-4.717,48.217,48.217,0,0,0-11.5-.748c-1.5.058-2.7.115-3.509.173a9.315,9.315,0,0,1-1.266.058.729.729,0,0,1,.345-.058l.978-.115c.805-.058,2.013-.173,3.509-.288a45.811,45.811,0,0,1,11.562.633,23.727,23.727,0,0,1,10.469,4.89,14.34,14.34,0,0,1,2.416,2.531,4.083,4.083,0,0,1,.575.805C99.4,355.269,99.455,355.384,99.512,355.5Z" transform="translate(-69.368 -274.654)" fill="#263238"/>
      <path id="Path_134" data-name="Path 134" d="M101.081,328.639c0,.115-6.155.115-13.691,0s-13.691-.288-13.691-.4,6.155-.115,13.691,0S101.081,328.524,101.081,328.639Z" transform="translate(-71.11 -266.949)" fill="#263238"/>
      <g id="Group_17" data-name="Group 17" transform="translate(22.295 45.813)" opacity="0.5">
        <path id="Path_135" data-name="Path 135" d="M185.236,350.008v-1.381c0-.46,0-1.035-.058-1.668s-.058-1.438-.173-2.3a60.915,60.915,0,0,0-7.19-23.412,48.551,48.551,0,0,0-6.558-9.434,29.032,29.032,0,0,0-10.3-7.305,36.6,36.6,0,0,0-13.346-2.7,46.47,46.47,0,0,0-6.9.518,43.836,43.836,0,0,0-6.558,1.668,39.146,39.146,0,0,0-5.982,2.589l-.69.345-.69.4-1.323.805-1.266.863-.633.46-.575.46a37.411,37.411,0,0,0-7.881,8.341,39.475,39.475,0,0,0-4.544,8.916,42.317,42.317,0,0,0-2.013,8.053c-.115,1.208-.288,2.358-.288,3.394s-.058,2.013-.058,2.876.115,1.611.115,2.3a11.489,11.489,0,0,0,.173,1.668c.058.46.115.805.115,1.035v.345a1.61,1.61,0,0,0-.058-.345,9.463,9.463,0,0,1-.173-1.035c-.058-.46-.173-1.035-.23-1.668s-.173-1.438-.173-2.3-.058-1.841,0-2.876.173-2.186.288-3.394a39.7,39.7,0,0,1,1.956-8.111,41.546,41.546,0,0,1,4.544-9.031,35.779,35.779,0,0,1,7.938-8.456l.633-.46.633-.46,1.266-.92,1.381-.805.69-.4.69-.345a37.083,37.083,0,0,1,5.982-2.646,42.834,42.834,0,0,1,6.615-1.668,47.244,47.244,0,0,1,6.96-.518,37.515,37.515,0,0,1,13.461,2.761,28.219,28.219,0,0,1,10.412,7.363,54.075,54.075,0,0,1,6.558,9.549,60.385,60.385,0,0,1,4.084,9.261A57.931,57.931,0,0,1,185.12,344.6,33.82,33.82,0,0,1,185.236,350.008Z" transform="translate(-107.956 -301.4)" fill="#fff"/>
      </g>
      <path id="Path_136" data-name="Path 136" d="M591.361,277.2v.345c-.057.288-.057.633-.115,1.093-.115.92-.288,2.243-.46,3.912a21.794,21.794,0,0,0,.288,5.81,12.226,12.226,0,0,0,3.221,6.213,18.032,18.032,0,0,0,5.925,3.912,31,31,0,0,0,5.58,1.611c1.611.345,2.991.518,3.912.69l1.035.173c.115,0,.23.058.345.058h-.4L609.6,300.9c-.92-.115-2.3-.288-3.912-.575a32.042,32.042,0,0,1-5.695-1.553,16.985,16.985,0,0,1-6.04-3.969,12.85,12.85,0,0,1-3.279-6.385,20.416,20.416,0,0,1-.173-5.925c.173-1.668.4-2.991.575-3.912.115-.46.173-.805.23-1.035C591.3,277.43,591.361,277.315,591.361,277.2Z" transform="translate(-290.568 -245.307)" fill="#263238"/>
      <path id="Path_137" data-name="Path 137" d="M356.983,301.519c.115,0,.23-.058.288,0a4.951,4.951,0,0,1,.92.057,1.817,1.817,0,0,1,1.266.748,1.89,1.89,0,0,1,.173,1.9,2.725,2.725,0,0,1-1.841,1.438,8.192,8.192,0,0,1-2.646.115l-6.04-.345a4.991,4.991,0,0,1-1.611-.288,2.246,2.246,0,0,1-1.15-1.15,1.668,1.668,0,0,1,.288-1.553,2.259,2.259,0,0,1,1.208-.863,8.312,8.312,0,0,1,2.646-.288c.805,0,1.611,0,2.3.058l3.336.173a8.491,8.491,0,0,1,1.208.058.73.73,0,0,1-.345-.057,3.833,3.833,0,0,1-.92.057h-5.637a7.963,7.963,0,0,0-2.589.288,1.945,1.945,0,0,0-1.035.748,1.4,1.4,0,0,0-.23,1.266,1.424,1.424,0,0,0,.978.92,4.321,4.321,0,0,0,1.5.288l6.04.345a9.758,9.758,0,0,0,2.589-.058,2.619,2.619,0,0,0,1.726-1.266,1.586,1.586,0,0,0-.115-1.668,1.487,1.487,0,0,0-1.093-.748C357.386,301.519,356.983,301.577,356.983,301.519Z" transform="translate(-186.884 -255.533)" fill="#263238"/>
      <path id="Path_138" data-name="Path 138" d="M498.341,300.319h.288a4.949,4.949,0,0,1,.92.058,1.817,1.817,0,0,1,1.266.748,1.89,1.89,0,0,1,.173,1.9,2.725,2.725,0,0,1-1.841,1.438,8.477,8.477,0,0,1-2.7.115l-6.04-.345a4.99,4.99,0,0,1-1.611-.288,2.246,2.246,0,0,1-1.151-1.15,1.668,1.668,0,0,1,.288-1.553,2.259,2.259,0,0,1,1.208-.863,8.312,8.312,0,0,1,2.646-.288c.805,0,1.611,0,2.3.058l3.336.173a8.5,8.5,0,0,1,1.208.058.626.626,0,0,1-.288.058,5.961,5.961,0,0,0-.92.058h-5.637a7.963,7.963,0,0,0-2.589.288,1.784,1.784,0,0,0-1.035.805,1.4,1.4,0,0,0-.23,1.266,1.424,1.424,0,0,0,.978.92,4.321,4.321,0,0,0,1.5.288l6.04.345a9.757,9.757,0,0,0,2.589-.058,2.619,2.619,0,0,0,1.726-1.266,1.7,1.7,0,0,0-.115-1.726,1.66,1.66,0,0,0-1.093-.748A7.908,7.908,0,0,0,498.341,300.319Z" transform="translate(-246.903 -255.024)" fill="#263238"/>
      <path id="Path_139" data-name="Path 139" d="M406.77,279.5a1.61,1.61,0,0,1-.057.345c-.058.23-.173.518-.288.978l-1.035,3.739c-.92,3.279-2.243,8.053-3.969,14.093v.058h-.057a30.374,30.374,0,0,0-7.938,5.292,33.711,33.711,0,0,0-3.681,3.912,38.548,38.548,0,0,0-3.221,4.774,45.313,45.313,0,0,0-4.6,11.677,55.3,55.3,0,0,0-1.783,13.748v.115H247.774v-.115c-1.9-15.244-3.049-27.784-3.8-36.528-.345-4.372-.575-7.766-.748-10.124-.058-1.15-.115-2.071-.173-2.646s-.058-.978-.058-.978a5.3,5.3,0,0,1,.058.92c0,.633.115,1.5.23,2.646.173,2.3.46,5.752.805,10.124.748,8.744,1.956,21.284,3.854,36.528l-.115-.115H379.964l-.115.115a58.6,58.6,0,0,1,1.783-13.806,48.039,48.039,0,0,1,4.659-11.735,54.245,54.245,0,0,1,3.221-4.832,30.063,30.063,0,0,1,3.739-3.912,32.742,32.742,0,0,1,8-5.292l-.058.057,4.027-14.093c.46-1.611.805-2.876,1.093-3.739.115-.4.23-.748.288-.92A.81.81,0,0,1,406.77,279.5Z" transform="translate(-143.022 -246.284)" fill="#263238"/>
      <path id="Path_140" data-name="Path 140" d="M381.933,284.5v.173a1.124,1.124,0,0,1-.057.4c-.057.4-.115.92-.23,1.611a23.992,23.992,0,0,0-.288,2.531c-.058.978-.23,2.128-.345,3.394s-.23,2.646-.345,4.084-.173,3.049-.23,4.717c-.115,3.336-.115,7.018,0,10.872s.4,7.478.748,10.814c.173,1.668.345,3.221.575,4.717s.4,2.819.575,4.084.4,2.358.575,3.336.345,1.841.46,2.531.23,1.208.288,1.611l.058.4v.173a.2.2,0,0,0-.058-.115,3.678,3.678,0,0,1-.115-.4c-.057-.4-.23-.92-.345-1.611s-.345-1.553-.518-2.531-.4-2.071-.633-3.336-.46-2.589-.633-4.084-.4-3.049-.575-4.717c-.345-3.336-.633-6.96-.805-10.814s-.058-7.536.057-10.872c.058-1.668.173-3.221.288-4.717s.23-2.876.345-4.084.288-2.358.4-3.394.23-1.841.345-2.531.173-1.208.288-1.611l.058-.4C381.933,284.615,381.933,284.557,381.933,284.5Z" transform="translate(-201.192 -248.408)" fill="#263238"/>
      <path id="Path_141" data-name="Path 141" d="M235.322,279.874a8.93,8.93,0,0,1-6.845,1.266,7.222,7.222,0,0,1-5.177-3.509l5.062-.23Z" transform="translate(-134.654 -245.392)" fill="#263238"/>
      <path id="Path_142" data-name="Path 142" d="M232.1,259.093s5.12,3.106,6.615,2.7,25.31-19.27,39.634-26.518a16.079,16.079,0,0,0-4.372-.978s-6.673,3.394-15.014,8.4c-6.328,3.8-12.828,7.823-15.819,9.664Z" transform="translate(-138.392 -227.085)" fill="#455a64"/>
      <path id="Path_143" data-name="Path 143" d="M185.954,284.3l-.173.115-.518.288-1.956,1.093-7.363,4.142h0c-4.6-.173-10.584-.288-17.372,0-3.394.173-7.018.4-10.757.805s-7.708.92-11.677,1.553c-7.018,1.093-13.633,2.474-19.731,3.566a139.706,139.706,0,0,1-16.279,1.956c-4.659.288-8.456.173-11.045.115-1.323-.057-2.3-.115-2.991-.115l-.805-.058h.863c.69,0,1.726.058,2.991.058,2.589.058,6.385.058,11.045-.23a139.4,139.4,0,0,0,16.164-2.013c6.04-1.15,12.713-2.531,19.731-3.624q6.04-.949,11.735-1.553c3.8-.4,7.421-.633,10.814-.748,6.788-.288,12.77-.115,17.372.058h-.115l7.421-4.027,1.956-1.093.518-.288A.108.108,0,0,0,185.954,284.3Z" transform="translate(-75.91 -248.323)" fill="#263238"/>
      <path id="Path_144" data-name="Path 144" d="M265.907,263.4c36.182-1.611,109.123-2.934,145.3-4.6a6.056,6.056,0,0,0-2.186-6.443,79.693,79.693,0,0,0-17.545-9.952,135.883,135.883,0,0,0-33.421-7.823c-6.443-.518-18.235-.978-18.235-.978s-21.571.863-27.611,1.381a62.7,62.7,0,0,0-21.859,5.925c-7.536,3.739-20.651,14.784-20.651,14.784l-9.2,7.708Z" transform="translate(-150.455 -226.788)" fill="#455a64"/>
      <path id="Path_145" data-name="Path 145" d="M380.46,231.7l-6.96,29.855,12.655-.4,2.531-29.452Z" transform="translate(-198.454 -225.981)" fill="#263238"/>
      <path id="Path_146" data-name="Path 146" d="M479.866,244.3,478.6,264.548h1.783l1.208-19.616Z" transform="translate(-243.096 -231.333)" fill="#263238"/>
      <path id="Path_147" data-name="Path 147" d="M266.056,273.5c.575.748,3.739,8,3.739,8l-12.2-.805Z" transform="translate(-149.224 -243.736)" fill="#263238"/>
      <path id="Path_148" data-name="Path 148" d="M283.745,277l-9.319.288c-1.208,0-2.186-2.186-2.128-4.89h0c.058-2.416.863-4.429,1.956-4.774l8.859-2.819Z" transform="translate(-155.466 -240.04)" fill="#2ec4b6"/>
      <path id="Path_149" data-name="Path 149" d="M389.01,231.1c.058,0-.92,6.788-2.186,15.186s-2.416,15.186-2.531,15.129.92-6.788,2.186-15.186S388.953,231.1,389.01,231.1Z" transform="translate(-203.035 -225.726)" fill="#455a64"/>
      <path id="Path_150" data-name="Path 150" d="M270.307,272.7a9.891,9.891,0,0,1-1.438,3.049,10.287,10.287,0,0,1-2.071,2.646c-.057-.057.863-1.266,1.841-2.819S270.25,272.641,270.307,272.7Z" transform="translate(-153.13 -243.395)" fill="#455a64"/>
      <path id="Path_151" data-name="Path 151" d="M351.614,241.2c-.057.058-.057.173-.115.23l-.46.69c-.4.633-.978,1.438-1.611,2.474-1.381,2.071-3.279,4.947-5.35,8.111s-3.912,6.04-5.235,8.168l-1.611,2.474c-.173.288-.345.518-.46.69-.058.057-.115.173-.173.23a.356.356,0,0,1,.115-.23l.4-.69c.345-.575.863-1.438,1.5-2.531,1.323-2.128,3.106-5.062,5.177-8.226s4.027-5.982,5.465-8.053c.69-1.035,1.323-1.841,1.726-2.416.173-.23.345-.46.46-.633A2.983,2.983,0,0,0,351.614,241.2Z" transform="translate(-182.78 -230.016)" fill="#ebebeb"/>
      <path id="Path_152" data-name="Path 152" d="M349.082,249a42.46,42.46,0,0,1-2.876,4.257,34.766,34.766,0,0,1-3.106,4.084,42.457,42.457,0,0,1,2.876-4.257A34.762,34.762,0,0,1,349.082,249Z" transform="translate(-185.541 -233.329)" fill="#ebebeb"/>
      <path id="Path_153" data-name="Path 153" d="M665.668,302.863a13.765,13.765,0,0,1-5.292-.805,6.954,6.954,0,0,1-3.682-9.089c.057-.058.057-.173.115-.23l.057-.058A6.518,6.518,0,0,1,662.562,289h1.265a7.716,7.716,0,0,1,.805,2.991C664.92,294.752,665.438,298.952,665.668,302.863Z" transform="translate(-318.511 -250.32)" fill="#f5f5f5"/>
      <path id="Path_154" data-name="Path 154" d="M432.4,242.9c.058.058-2.7,4.544-6.155,10.009s-6.328,9.837-6.443,9.837,2.7-4.487,6.155-10.009S432.28,242.842,432.4,242.9Z" transform="translate(-218.118 -230.738)" fill="#ebebeb"/>
      <path id="Path_155" data-name="Path 155" d="M436.772,252.7a21.1,21.1,0,0,1-2.071,3.451,31.369,31.369,0,0,1-2.3,3.336,21.1,21.1,0,0,1,2.071-3.451A22.853,22.853,0,0,1,436.772,252.7Z" transform="translate(-223.472 -234.901)" fill="#ebebeb"/>
      <path id="Path_156" data-name="Path 156" d="M283.19,267.9a22.868,22.868,0,0,1-7.19,2.071c0-.057,1.611-.46,3.566-1.035S283.19,267.839,283.19,267.9Z" transform="translate(-157.039 -241.354)" fill="#ebebeb"/>
      <path id="Path_157" data-name="Path 157" d="M325.563,289.773c0,.058-15.186.173-33.882.173s-33.881-.058-33.881-.173,15.186-.173,33.881-.173S325.563,289.658,325.563,289.773Z" transform="translate(-149.309 -250.574)" fill="#ebebeb"/>
      <path id="Path_158" data-name="Path 158" d="M359.594,300.173a70.992,70.992,0,0,1-9.894,0,46.851,46.851,0,0,1,4.947-.173C356.315,300,357.983,300.057,359.594,300.173Z" transform="translate(-188.344 -254.992)" fill="#ebebeb"/>
      <path id="Path_159" data-name="Path 159" d="M153.467,312.115h-1.5a29.171,29.171,0,0,0-3.912.23,30.133,30.133,0,0,0-21.514,13.115,29.228,29.228,0,0,0-2.013,3.394c-.23.4-.345.748-.46.978l-.173.345c.058-.115.058-.23.115-.345.115-.23.23-.575.46-.978a25.4,25.4,0,0,1,1.956-3.451,29.673,29.673,0,0,1,21.686-13.23,30.553,30.553,0,0,1,3.969-.173c.46,0,.805.057,1.093.057A1.17,1.17,0,0,0,153.467,312.115Z" transform="translate(-92.433 -260.089)" fill="#ebebeb"/>
      <path id="Path_160" data-name="Path 160" d="M443.569,286.973c0,.057-10.067.173-22.434.173s-22.434-.058-22.434-.173,10.067-.173,22.434-.173S443.569,286.858,443.569,286.973Z" transform="translate(-209.158 -249.385)" fill="#ebebeb"/>
      <path id="Path_161" data-name="Path 161" d="M502.745,298.545a7.534,7.534,0,0,1-1.611,0c-.978,0-2.358-.058-3.912-.058h-3.912a15.043,15.043,0,0,1-1.611,0,7.669,7.669,0,0,1,1.611-.173c.978-.058,2.358-.115,3.912-.115a36.018,36.018,0,0,1,3.912.173A4.954,4.954,0,0,1,502.745,298.545Z" transform="translate(-248.661 -254.227)" fill="#ebebeb"/>
    </g>
    <g id="freepik--Character--inject-4" transform="translate(304.011 159.14)">
      <path id="Path_162" data-name="Path 162" d="M568.763,190.256h0a4,4,0,0,1-4.027-4.027v-4.6s-3.336-.518-3.336-3.8.518-10.93.518-10.93h0a11.488,11.488,0,0,1,11.562,1.438h0l-.805,18.178A3.922,3.922,0,0,1,568.763,190.256Z" transform="translate(-513.08 -162.035)" fill="#b78876"/>
      <path id="Path_163" data-name="Path 163" d="M567.3,192.208A8,8,0,0,0,571.614,191a4.107,4.107,0,0,1-4.314,2.071Z" transform="translate(-515.586 -172.673)" fill="#aa6550"/>
      <path id="Path_164" data-name="Path 164" d="M581.815,176.628c.057,0,2.3-.69,2.186,1.611a1.679,1.679,0,0,1-2.3,1.668C581.7,179.85,581.815,176.628,581.815,176.628Z" transform="translate(-521.703 -166.527)" fill="#b78876"/>
      <path id="Path_165" data-name="Path 165" d="M582.9,179.626a.2.2,0,0,0,.115.058.261.261,0,0,0,.288,0,1.014,1.014,0,0,0,.46-.863,1.037,1.037,0,0,0-.115-.575c-.057-.173-.173-.288-.288-.288-.115-.058-.173,0-.23.115v.115a.08.08,0,0,1,0-.115.124.124,0,0,1,.115-.115c.057-.058.115-.058.23-.058a.608.608,0,0,1,.4.345,1.137,1.137,0,0,1,.115.633,1.063,1.063,0,0,1-.633.978.38.38,0,0,1-.345-.058C582.9,179.683,582.9,179.626,582.9,179.626Z" transform="translate(-522.212 -167.109)" fill="#aa6550"/>
      <path id="Path_166" data-name="Path 166" d="M564.5,176.2a.5.5,0,0,0,.46.46.445.445,0,0,0,.46-.4h0a.454.454,0,0,0-.46-.46h0a.408.408,0,0,0-.46.4Z" transform="translate(-514.397 -166.21)" fill="#263238"/>
      <path id="Path_167" data-name="Path 167" d="M563.5,175.318c.057.058.4-.23.92-.23s.863.23.92.173-.058-.115-.173-.23a1.33,1.33,0,0,0-1.5,0A.525.525,0,0,0,563.5,175.318Z" transform="translate(-513.972 -165.792)" fill="#263238"/>
      <path id="Path_168" data-name="Path 168" d="M573.2,176.2a.5.5,0,0,0,.46.46.445.445,0,0,0,.46-.4h0a.454.454,0,0,0-.46-.46h0a.408.408,0,0,0-.46.4Z" transform="translate(-518.092 -166.21)" fill="#263238"/>
      <path id="Path_169" data-name="Path 169" d="M572.2,175.418c.057.058.4-.23.92-.23s.863.23.92.173,0-.115-.173-.23a1.33,1.33,0,0,0-1.5,0A2.982,2.982,0,0,0,572.2,175.418Z" transform="translate(-517.667 -165.834)" fill="#263238"/>
      <path id="Path_170" data-name="Path 170" d="M568.09,179.257c-.288-.058-.575-.115-.805-.173a.439.439,0,0,1-.288-.115.547.547,0,0,1,.115-.4,7.013,7.013,0,0,1,.4-.978,22.744,22.744,0,0,0,.863-2.589,19.752,19.752,0,0,0-1.093,2.531c-.115.345-.23.69-.345.978a.812.812,0,0,0-.058.518c.058.115.115.173.23.173.057,0,.172.058.23.058A1.62,1.62,0,0,0,568.09,179.257Z" transform="translate(-515.399 -165.877)" fill="#263238"/>
      <path id="Path_171" data-name="Path 171" d="M570.411,183c-.057,0-.115.575-.575.92a3.561,3.561,0,0,1-1.035.4c0,.058.115.115.4.115a1.738,1.738,0,0,0,.92-.288,1.259,1.259,0,0,0,.46-.805Q570.5,183,570.411,183Z" transform="translate(-516.223 -169.275)" fill="#263238"/>
      <path id="Path_172" data-name="Path 172" d="M571.989,172.128c.057.115.575.058,1.15.173s1.093.23,1.15.115-.057-.173-.23-.345a2.076,2.076,0,0,0-1.783-.173C572.047,171.956,571.932,172.071,571.989,172.128Z" transform="translate(-517.572 -164.501)" fill="#263238"/>
      <path id="Path_173" data-name="Path 173" d="M563.8,172.706c.115.115.46,0,.863,0s.748.058.863-.058,0-.173-.173-.288a1.215,1.215,0,0,0-1.381.058A.526.526,0,0,0,563.8,172.706Z" transform="translate(-514.099 -164.675)" fill="#263238"/>
      <path id="Path_174" data-name="Path 174" d="M559.592,161.936a1.2,1.2,0,0,1,.46-1.093.874.874,0,0,1,1.15.058,1.008,1.008,0,0,1,.748-1.208h.115c.518-.058.978.345,1.553.518a2.437,2.437,0,0,0,1.553-.173c.46-.173.978-.46,1.438-.633a4.2,4.2,0,0,1,5.407,2.474,1.958,1.958,0,0,1,2.013.748,3.236,3.236,0,0,1,.46,2.186,4.826,4.826,0,0,1-.4,1.5v.115c-.057,1.841-.23,3.969-1.035,3.969-1.323,0-1.035-2.531-1.035-2.531-1.668-.633-1.035-3.106-1.438-3.509s-1.266-1.266-4.775.518a6.862,6.862,0,0,1-4.142.46h-.115a3.863,3.863,0,0,1-.863-.345,1.7,1.7,0,0,1-.748-.805.979.979,0,0,1,.172-1.035A3.655,3.655,0,0,1,559.592,161.936Z" transform="translate(-512.307 -159.14)" fill="#263238"/>
      <path id="Path_175" data-name="Path 175" d="M616.357,201.031c-.057.115-1.035,1.9-1.035,1.9s.748-2.934.748-2.991c.23-.92-.345-.863-.518-.518s-1.265,3.221-1.265,3.221c.978-3.739.69-4.084.4-4.142s-1.15,3.336-1.15,3.336a2.51,2.51,0,0,0-.92-.978c-.92-.633-2.416,0-2.474.4s.46.518.46.518a1.325,1.325,0,0,1,1.9.288,1.506,1.506,0,0,1,.288.978.838.838,0,0,1-.92.748.979.979,0,0,1-.748-.575c-.4-1.668-.978-1.15-.978-1.15l.575,3.682-.633,1.841-3.336,9.089L600.308,210s-3.451,7.593-3.509,7.823,3.221,3.566,5.35,5.81a6.025,6.025,0,0,0,8.571.115,5.957,5.957,0,0,0,1.668-2.991l2.531-13.058,1.208-4.257s.4-1.726.518-2.128C616.933,200.8,616.53,200.628,616.357,201.031Z" transform="translate(-528.116 -175.858)" fill="#b78876"/>
      <path id="Path_176" data-name="Path 176" d="M508.578,237.063c1.9.345,4.142-1.035,5.292-2.589l4.775-6.27-5.637-5-5.062,6.27-18.925-.978-4.429-2.474a1.536,1.536,0,0,0-1.035-.173l-6.155,1.726,5.752,1.783,10.067,3.8Z" transform="translate(-477.4 -186.35)" fill="#b78876"/>
      <path id="Path_177" data-name="Path 177" d="M606.1,408.3l.805,3.336s5.465,7.075,7.133,6.73c1.093-.23-.23-2.071-2.3-7.421l-.46-2.243Z" transform="translate(-532.067 -264.974)" fill="#ff725e"/>
      <path id="Path_178" data-name="Path 178" d="M614.678,419.243c0,.057,0,.057-.057.115a.449.449,0,0,1-.23.23,1.355,1.355,0,0,1-.46.115,1.206,1.206,0,0,1-.633-.23,28.839,28.839,0,0,1-5.177-5.407c-.288-.4-.518-.69-.69-.92-.057-.057-.115-.173-.173-.23,0-.058-.057-.058-.057-.115l.057.058.173.23.69.92a29.724,29.724,0,0,0,2.474,2.819,28.725,28.725,0,0,0,2.7,2.589,1.115,1.115,0,0,0,1.035.173A.976.976,0,0,0,614.678,419.243Z" transform="translate(-532.534 -266.885)" fill="#263238"/>
      <path id="Path_179" data-name="Path 179" d="M617.159,419.915h-.46a2.833,2.833,0,0,0-.978.345,1.87,1.87,0,0,0-.748.748,3.416,3.416,0,0,0-.173.4,1.353,1.353,0,0,1,.115-.46,1.7,1.7,0,0,1,.748-.805,2.749,2.749,0,0,1,1.035-.345A1.35,1.35,0,0,1,617.159,419.915Z" transform="translate(-535.762 -269.859)" fill="#263238"/>
      <path id="Path_180" data-name="Path 180" d="M608.583,414.636s.058-.23.115-.633a2.409,2.409,0,0,0-.288-1.438,2.257,2.257,0,0,0-1.035-1.035,2.4,2.4,0,0,0-.575-.23h.173a1.354,1.354,0,0,1,.46.115A2.458,2.458,0,0,1,608.756,414a1.353,1.353,0,0,1-.115.46C608.641,414.579,608.641,414.636,608.583,414.636Z" transform="translate(-532.364 -266.248)" fill="#263238"/>
      <path id="Path_181" data-name="Path 181" d="M606.7,409.3a3.494,3.494,0,0,1,.288,1.035,3.969,3.969,0,0,1,.173,1.093,3.492,3.492,0,0,1-.288-1.035A7.957,7.957,0,0,0,606.7,409.3Z" transform="translate(-532.322 -265.399)" fill="#263238"/>
      <path id="Path_182" data-name="Path 182" d="M615.023,413.641a2.779,2.779,0,0,0-.69.115,4.023,4.023,0,0,0-.633.23.924.924,0,0,1,.633-.288A.611.611,0,0,1,615.023,413.641Z" transform="translate(-535.295 -267.208)" fill="#263238"/>
      <path id="Path_183" data-name="Path 183" d="M615.393,414.63a3.34,3.34,0,0,0-.575.058c-.288.057-.518.23-.518.173a.934.934,0,0,1,.518-.288A.7.7,0,0,1,615.393,414.63Z" transform="translate(-535.55 -267.622)" fill="#263238"/>
      <path id="Path_184" data-name="Path 184" d="M616.093,415.8h-.575a2.046,2.046,0,0,0-.518.23.838.838,0,0,1,.518-.345A.709.709,0,0,1,616.093,415.8Z" transform="translate(-535.847 -268.1)" fill="#263238"/>
      <path id="Path_185" data-name="Path 185" d="M613.856,412.323h-.173c-.173-.057-.345-.057-.46-.115a3.515,3.515,0,0,1-.69-.288c-.115-.058-.23-.173-.345-.23a.665.665,0,0,1-.288-.4.322.322,0,0,1,.345-.288h.057a.666.666,0,0,1,.4.288l.518.518c.115.173.23.288.288.4.058.058.058.115.115.173,0,0-.173-.173-.46-.518a2.2,2.2,0,0,0-.518-.518,1.2,1.2,0,0,0-.345-.23c-.115,0-.288.058-.288.173s.115.23.23.345a1.2,1.2,0,0,0,.345.23,3.078,3.078,0,0,0,.633.288C613.626,412.208,613.856,412.266,613.856,412.323Z" transform="translate(-534.531 -266.121)" fill="#263238"/>
      <path id="Path_186" data-name="Path 186" d="M614.8,411.782v-.173a1.43,1.43,0,0,1,.057-.46,1.16,1.16,0,0,1,.173-.633,1.2,1.2,0,0,1,.23-.345.311.311,0,0,1,.46-.115.653.653,0,0,1,.173.46,1.067,1.067,0,0,1-.115.4,2.066,2.066,0,0,1-.4.575,1.526,1.526,0,0,1-.345.288c-.172,0-.172.057-.23,0a3.481,3.481,0,0,0,.46-.4,1.193,1.193,0,0,0,.345-.575.818.818,0,0,0,.115-.345c0-.115,0-.288-.115-.345a.21.21,0,0,0-.288.115c-.057.115-.173.23-.173.288a1.311,1.311,0,0,0-.173.633A4.659,4.659,0,0,1,614.8,411.782Z" transform="translate(-535.762 -265.694)" fill="#263238"/>
      <g id="Group_18" data-name="Group 18" transform="translate(74.436 145.052)" opacity="0.4">
        <path id="Path_187" data-name="Path 187" d="M607.2,412.911l-.4-1.611a2.265,2.265,0,0,1,1.668,1.266,4.535,4.535,0,0,1,.288,1.726l2.876,3.106s.748-1.438,2.071-1.093a12.666,12.666,0,0,1,.978,2.876c-.057.575-.69.518-.92.4a11.386,11.386,0,0,1-2.589-2.071C609.619,415.9,607.95,413.889,607.2,412.911Z" transform="translate(-606.8 -411.3)"/>
      </g>
      <path id="Path_188" data-name="Path 188" d="M554.979,407.844v-4.429l8.341-.115.115,6.5-.518.058c-2.3.173-11.677.633-13.23.173C547.9,409.513,554.979,407.844,554.979,407.844Z" transform="translate(-507.982 -262.85)" fill="#ff725e"/>
      <g id="Group_19" data-name="Group 19" transform="translate(52.347 144.525)" opacity="0.4">
        <path id="Path_189" data-name="Path 189" d="M568.4,412.81a2.856,2.856,0,0,1,1.035-1.783,2.6,2.6,0,0,1,1.956-.633v2.3Z" transform="translate(-568.4 -410.385)"/>
      </g>
      <g id="Group_20" data-name="Group 20" transform="translate(41.384 145.972)" opacity="0.4">
        <path id="Path_190" data-name="Path 190" d="M551.5,412.9s-2.474.748-2.128,1.151,9.779.288,13.978-.115v-.173l-11.045.23C552.252,413.935,551.964,412.9,551.5,412.9Z" transform="translate(-549.343 -412.9)"/>
      </g>
      <path id="Path_191" data-name="Path 191" d="M563.451,414.3h-.575l-1.5.057c-1.266.058-3.049.115-5,.173s-3.739,0-5,0l-1.5-.058h6.5c1.956,0,3.739-.058,5-.115l1.5-.058h.575Z" transform="translate(-507.94 -267.522)" fill="#263238"/>
      <path id="Path_192" data-name="Path 192" d="M553.805,413.923a4,4,0,0,0-.288-.748A5.178,5.178,0,0,0,553,412.6a1.527,1.527,0,0,1,.805,1.323Z" transform="translate(-509.512 -266.8)" fill="#263238"/>
      <path id="Path_193" data-name="Path 193" d="M558.249,412.233a1.175,1.175,0,0,1-.288-.288c-.115-.173-.23-.345-.173-.345s.173.115.288.288S558.306,412.233,558.249,412.233Z" transform="translate(-511.54 -266.376)" fill="#263238"/>
      <path id="Path_194" data-name="Path 194" d="M559.418,411.749a.842.842,0,0,1-.288-.173c-.115-.115-.23-.23-.23-.288s.173.058.288.173S559.418,411.691,559.418,411.749Z" transform="translate(-512.018 -266.237)" fill="#263238"/>
      <path id="Path_195" data-name="Path 195" d="M559.82,410.658a1.121,1.121,0,0,1-.46.058,1.266,1.266,0,0,1-.46-.058,1.87,1.87,0,0,1,.92,0Z" transform="translate(-512.018 -265.951)" fill="#263238"/>
      <path id="Path_196" data-name="Path 196" d="M560.078,409.8a.653.653,0,0,1-.46.173.812.812,0,0,1-.518-.057c.173,0,.345-.058.46-.058A1.593,1.593,0,0,1,560.078,409.8Z" transform="translate(-512.103 -265.611)" fill="#263238"/>
      <path id="Path_197" data-name="Path 197" d="M556.953,410.946a.8.8,0,0,1-.518,0,2.043,2.043,0,0,1-.575-.115c-.115-.058-.23-.058-.345-.115-.057-.058-.115-.115-.115-.173a.346.346,0,0,1,.057-.23.92.92,0,0,1,1.208.288c.058.115.173.23.173.345v.173a1.721,1.721,0,0,0-.23-.46,1.253,1.253,0,0,0-.46-.288.791.791,0,0,0-.633.058.142.142,0,0,0,.058.23c.115.058.173.115.288.115a2.043,2.043,0,0,0,.575.115C556.781,410.946,556.953,410.889,556.953,410.946Z" transform="translate(-510.531 -265.779)" fill="#263238"/>
      <path id="Path_198" data-name="Path 198" d="M557.84,410.735a.381.381,0,0,1-.057-.345.621.621,0,0,1,.173-.4.512.512,0,0,1,.46-.288c.115,0,.173.115.173.23h0a.436.436,0,0,1-.115.23c-.057.115-.173.23-.23.345-.23.173-.345.23-.4.23.058,0,.173-.115.288-.288.057-.115.173-.23.23-.345s.115-.345,0-.345a.473.473,0,0,0-.345.23l-.173.345C557.84,410.505,557.84,410.62,557.84,410.735Z" transform="translate(-511.533 -265.569)" fill="#263238"/>
      <path id="Path_199" data-name="Path 199" d="M571.334,410.34H570.7a3.008,3.008,0,0,0-1.323.575,2.16,2.16,0,0,0-.805,1.208c-.115.345-.115.575-.173.575v-.173a1.353,1.353,0,0,1,.115-.46,2.459,2.459,0,0,1,2.186-1.783h.46C571.219,410.225,571.276,410.282,571.334,410.34Z" transform="translate(-516.053 -265.806)" fill="#263238"/>
      <path id="Path_200" data-name="Path 200" d="M571.9,404.4c.057.575.115,1.151.115,1.726a8.645,8.645,0,0,1,0,1.726c-.057-.575-.115-1.15-.115-1.726Z" transform="translate(-517.54 -263.317)" fill="#263238"/>
      <path id="Path_201" data-name="Path 201" d="M564.816,413.188a4.307,4.307,0,0,1-1.208.115,8.5,8.5,0,0,1-1.208-.057h1.208C564.241,413.246,564.816,413.131,564.816,413.188Z" transform="translate(-513.505 -267.043)" fill="#263238"/>
      <path id="Path_202" data-name="Path 202" d="M569.2,413.184l-.115.23c-.058.115-.057.23-.115.23s-.057-.115,0-.288S569.2,413.127,569.2,413.184Z" transform="translate(-516.276 -267.039)" fill="#263238"/>
      <path id="Path_203" data-name="Path 203" d="M570.288,411.8a.2.2,0,0,1-.115.173c-.115.058-.173.173-.173.115s0-.115.115-.173S570.23,411.8,570.288,411.8Z" transform="translate(-516.733 -266.461)" fill="#263238"/>
      <path id="Path_204" data-name="Path 204" d="M571.66,411.14a.573.573,0,0,0-.23.058c-.115.057-.23.115-.23.057s.057-.115.173-.173S571.66,411.082,571.66,411.14Z" transform="translate(-517.243 -266.146)" fill="#263238"/>
      <path id="Path_205" data-name="Path 205" d="M572.876,410.868l-.115.115c-.058.058-.115,0-.173,0s.057-.058.115-.115A.108.108,0,0,1,572.876,410.868Z" transform="translate(-517.826 -266.046)" fill="#263238"/>
      <path id="Path_206" data-name="Path 206" d="M592.431,345.033,576.037,258,553.2,261.509l1.611,82.719,12.943.288-2.186-72.192,14.554,72.71Z" transform="translate(-509.597 -201.132)" fill="#455a64"/>
      <path id="Path_207" data-name="Path 207" d="M570.88,241.068l-26.116-.978.748-23.815-3.451,3.912-6.96-6.04,7.651-10.469a12.525,12.525,0,0,1,8.341-4.947c.978-.115,1.726-.23,2.186-.23a14.324,14.324,0,0,0,8.513,0h0a11.88,11.88,0,0,1,3.509.69,14.632,14.632,0,0,1,5.637,3.624h0l8.571,11.562L572.2,220.7l-4.2-3.682Z" transform="translate(-501.909 -175.859)" fill="#ff9f1c"/>
      <path id="Path_208" data-name="Path 208" d="M553.317,213.8c.057,0,0,3.969-.173,8.859s-.4,8.859-.46,8.859,0-3.969.173-8.859S553.259,213.8,553.317,213.8Z" transform="translate(-509.369 -182.358)" fill="#455a64"/>
      <path id="Path_209" data-name="Path 209" d="M590.7,216.5a37.712,37.712,0,0,1,.633,5.12,38.921,38.921,0,0,1,.345,5.12,37.722,37.722,0,0,1-.633-5.12C590.873,219.951,590.758,218.226,590.7,216.5Z" transform="translate(-525.526 -183.504)" fill="#455a64"/>
      <path id="Path_210" data-name="Path 210" d="M567.686,198.889c.057.058-.173.288-.46.518s-.575.345-.633.288.173-.288.46-.518S567.629,198.832,567.686,198.889Z" transform="translate(-515.282 -176.018)" fill="#455a64"/>
      <path id="Path_211" data-name="Path 211" d="M570.328,199.395c.057.058,0,.288-.057.575s-.173.518-.23.518-.115-.288-.057-.575S570.212,199.337,570.328,199.395Z" transform="translate(-516.715 -176.236)" fill="#455a64"/>
      <path id="Path_212" data-name="Path 212" d="M572.815,199.7c.115,0,.173.23.173.518s-.058.518-.115.518-.173-.23-.173-.518S572.758,199.7,572.815,199.7Z" transform="translate(-517.88 -176.368)" fill="#455a64"/>
      <path id="Path_213" data-name="Path 213" d="M575.84,199.4c.115,0,.173.23.23.518s.115.518.057.575-.288-.173-.345-.518S575.782,199.4,575.84,199.4Z" transform="translate(-519.179 -176.241)" fill="#455a64"/>
      <path id="Path_214" data-name="Path 214" d="M579.275,199.093c.057-.058.23.173.345.345s.288.4.23.46-.288,0-.46-.288S579.217,199.093,579.275,199.093Z" transform="translate(-520.658 -176.107)" fill="#455a64"/>
      <path id="Path_215" data-name="Path 215" d="M581.089,198.583c.058-.058.23,0,.46.115s.345.288.288.345-.23,0-.46-.115S581.032,198.641,581.089,198.583Z" transform="translate(-521.437 -175.885)" fill="#455a64"/>
      <path id="Path_216" data-name="Path 216" d="M575.559,226.173c0,.058-4.889.173-10.929.173s-10.93-.058-10.93-.173,4.89-.173,10.93-.173S575.559,226.115,575.559,226.173Z" transform="translate(-509.809 -187.54)" fill="#fafafa"/>
      <path id="Path_217" data-name="Path 217" d="M575.859,228.973c0,.058-4.89.173-10.93.173s-10.93-.058-10.93-.173,4.89-.173,10.93-.173S575.859,228.915,575.859,228.973Z" transform="translate(-509.937 -188.729)" fill="#fafafa"/>
      <path id="Path_218" data-name="Path 218" d="M575.734,231.84c0,.058-5.062.173-11.217.23s-11.217,0-11.217-.058,5-.173,11.217-.23S575.734,231.782,575.734,231.84Z" transform="translate(-509.639 -189.986)" fill="#fafafa"/>
      <path id="Path_219" data-name="Path 219" d="M599.391,215.5a5.379,5.379,0,0,1-.92,1.035c-.633.575-1.5,1.381-2.474,2.243s-1.956,1.553-2.646,2.071a7.9,7.9,0,0,1-1.15.748,7.894,7.894,0,0,1,1.035-.92l2.589-2.128,2.531-2.186A3.766,3.766,0,0,1,599.391,215.5Z" transform="translate(-526.163 -183.08)" fill="#fafafa"/>
      <path id="Path_220" data-name="Path 220" d="M600.841,218a9.8,9.8,0,0,1-1.093,1.093c-.69.633-1.726,1.5-2.876,2.358s-2.243,1.668-3.049,2.186a10.133,10.133,0,0,1-1.323.805c.4-.345.805-.69,1.208-.978.748-.575,1.841-1.381,2.991-2.243s2.186-1.726,2.934-2.3A6.674,6.674,0,0,1,600.841,218Z" transform="translate(-526.29 -184.142)" fill="#fafafa"/>
      <path id="Path_221" data-name="Path 221" d="M602.2,220.4a46.443,46.443,0,0,1-3.912,3.566c-1.323,1.208-2.7,2.3-4.084,3.336a37.81,37.81,0,0,1,3.912-3.509A44.014,44.014,0,0,1,602.2,220.4Z" transform="translate(-527.012 -185.161)" fill="#fafafa"/>
      <path id="Path_222" data-name="Path 222" d="M548.628,222.655a3.539,3.539,0,0,1-1.093-.69,20.176,20.176,0,0,1-2.3-2.128c-.863-.863-1.611-1.726-2.128-2.3a4.961,4.961,0,0,1-.805-1.035,4.582,4.582,0,0,1,.978.863c.575.575,1.323,1.381,2.186,2.243.69.748,1.438,1.5,2.186,2.186C547.995,222.08,548.34,222.367,548.628,222.655Z" transform="translate(-504.967 -183.504)" fill="#fafafa"/>
      <path id="Path_223" data-name="Path 223" d="M546.988,225.63a5.469,5.469,0,0,1-1.15-.863c-.69-.575-1.553-1.381-2.474-2.3a27.308,27.308,0,0,1-2.3-2.474,5.154,5.154,0,0,1-.863-1.093c.345.288.69.633,1.035.978.575.633,1.438,1.5,2.358,2.358s1.783,1.726,2.416,2.3C546.355,224.882,546.7,225.285,546.988,225.63Z" transform="translate(-504.075 -184.524)" fill="#fafafa"/>
      <path id="Path_224" data-name="Path 224" d="M545.375,228.215a5.616,5.616,0,0,1-1.035-.978c-.633-.633-1.5-1.438-2.474-2.358s-1.9-1.726-2.531-2.3a5.618,5.618,0,0,1-1.035-.978,5.19,5.19,0,0,1,1.151.805,33.4,33.4,0,0,1,2.589,2.243,31.022,31.022,0,0,1,2.416,2.474A3.34,3.34,0,0,1,545.375,228.215Z" transform="translate(-503.268 -185.671)" fill="#fafafa"/>
      <path id="Path_225" data-name="Path 225" d="M578.086,270.117c0,.058-5.81,0-12.943-.173s-12.943-.4-12.943-.46,5.81,0,12.943.173S578.086,270.059,578.086,270.117Z" transform="translate(-509.172 -206.001)" fill="#455a64"/>
    </g>
  </g>
</svg>
