<svg xmlns="http://www.w3.org/2000/svg" width="336.507" height="198.213" viewBox="0 0 336.507 198.213">
  <g id="RideCar" transform="translate(-24.804 -23.565)">
    <g id="Layer_1" transform="translate(313.338 23.565)">
      <g id="freepik--Character--inject-17">
        <path id="Path_1" data-name="Path 1" d="M604.668,68.778a5.562,5.562,0,0,0-1.34-.8c-.858-.429-2.359-1.287-2.413-2.252a22.477,22.477,0,0,1-.161-2.681c.107-1.984-2.573-3.11-2.949-5.04-.322-1.662,1.072-3.163,1.019-4.825s-1.5-2.9-2.144-4.45c-1.555-3.538.482-6.809-.858-11.312a10.542,10.542,0,0,0-2.413-4.343,7.861,7.861,0,0,0-4.932-2.2l-.161-.214c-1.34-2.037-4.4-2.145-6.7-1.233s-4.289,2.466-6.7,3.056c-1.18.268-.965-1.448-2.145-1.179a5.99,5.99,0,0,0-3.86,3.592c-.483,1.608-.8,3.378-1.34,4.932-.643,1.716-2.466,2.949-2.681,4.772-.214,2.145,2.037,3.86,2.037,6,0,2.305-2.573,4.4-1.716,6.541.483,1.233,1.876,1.876,2.413,3.11.7,1.662-.7,3.538-.536,5.361s1.608,3.163,3.056,4.235a64.257,64.257,0,0,0,18.014,9.918,21.424,21.424,0,0,0,8.739,1.448,9.7,9.7,0,0,0,7.506-4.235C605.687,74.836,606.652,70.172,604.668,68.778Z" transform="translate(-563.861 -26.03)" fill="#263238"/>
        <path id="Path_2" data-name="Path 2" d="M580.889,44.256a9.314,9.314,0,0,1,8.739-9.758h.322a9.5,9.5,0,0,1,9.65,8.685,98.422,98.422,0,0,1,.536,10.186c-.375,4.718-3.27,6.38-4.45,6.862a5.381,5.381,0,0,1-1.287.214h0a.053.053,0,0,0-.054.054l.751,5.469a6.154,6.154,0,0,1-5.629,6.916c-3.646.268-6.326-2.627-6.648-6.219Z" transform="translate(-571.284 -28.635)" fill="#ffbe9d"/>
        <path id="Path_3" data-name="Path 3" d="M611.25,57.569a.733.733,0,0,1-.7.8.809.809,0,0,1-.858-.59h0a.733.733,0,0,1,.7-.8.675.675,0,0,1,.858.59Z" transform="translate(-584.649 -39.054)" fill="#263238"/>
        <path id="Path_4" data-name="Path 4" d="M610.973,52.285c-.107.107-.7-.268-1.5-.214s-1.394.536-1.5.429.054-.214.268-.429a2.309,2.309,0,0,1,1.18-.483,1.993,1.993,0,0,1,1.233.268C610.919,52.071,611.026,52.232,610.973,52.285Z" transform="translate(-583.836 -36.558)" fill="#263238"/>
        <path id="Path_5" data-name="Path 5" d="M597.25,58.384a.733.733,0,0,1-.7.8.809.809,0,0,1-.858-.59h0a.733.733,0,0,1,.7-.8.743.743,0,0,1,.858.59Z" transform="translate(-578.155 -39.44)" fill="#263238"/>
        <path id="Path_6" data-name="Path 6" d="M595.973,53.785c-.107.107-.7-.268-1.5-.214s-1.394.536-1.5.429.054-.214.268-.429a2.309,2.309,0,0,1,1.18-.483,1.993,1.993,0,0,1,1.233.268C595.919,53.571,596.026,53.732,595.973,53.785Z" transform="translate(-576.878 -37.253)" fill="#263238"/>
        <path id="Path_7" data-name="Path 7" d="M604.3,59.393a5.443,5.443,0,0,1,1.34-.322c.214-.054.429-.107.429-.214a.806.806,0,0,0-.214-.59l-.751-1.5a22.163,22.163,0,0,1-1.716-3.967,21.514,21.514,0,0,1,2.037,3.86l.7,1.555a1.057,1.057,0,0,1,.161.8.483.483,0,0,1-.322.322.8.8,0,0,1-.375.054Z" transform="translate(-581.723 -37.125)" fill="#263238"/>
        <path id="Path_8" data-name="Path 8" d="M599.791,81.555A13.391,13.391,0,0,1,592.5,80c.268.107,1.448,4.772,7.506,3Z" transform="translate(-576.676 -49.743)" fill="#eb996e"/>
        <path id="Path_9" data-name="Path 9" d="M602.666,68.4a1.49,1.49,0,0,0-1.394-.429,1.316,1.316,0,0,0-.911.59.8.8,0,0,0,0,.965.972.972,0,0,0,1.072.161,3.144,3.144,0,0,0,1.019-.7.535.535,0,0,0,.214-.268.342.342,0,0,0,0-.322" transform="translate(-580.248 -44.149)" fill="#eb996e"/>
        <path id="Path_10" data-name="Path 10" d="M600.607,66.5c.107,0,.214.858,1.019,1.394a4.861,4.861,0,0,0,1.769.483c0,.107-.214.214-.59.214a2.516,2.516,0,0,1-1.5-.375,1.83,1.83,0,0,1-.8-1.179C600.5,66.714,600.554,66.5,600.607,66.5Z" transform="translate(-580.387 -43.481)" fill="#263238"/>
        <path id="Path_11" data-name="Path 11" d="M595.388,49.078c-.054.214-.911.161-1.823.375-.965.214-1.716.536-1.876.322-.054-.107.054-.322.375-.536a3.029,3.029,0,0,1,1.34-.59,3.3,3.3,0,0,1,1.448.054C595.227,48.81,595.388,48.971,595.388,49.078Z" transform="translate(-576.293 -35.174)" fill="#263238"/>
        <path id="Path_12" data-name="Path 12" d="M610.372,48.4c-.107.214-.7.054-1.394.107s-1.233.214-1.394.054c-.054-.107,0-.268.268-.483a2.022,2.022,0,0,1,1.126-.375,2.061,2.061,0,0,1,1.126.268C610.372,48.129,610.479,48.29,610.372,48.4Z" transform="translate(-583.664 -34.76)" fill="#263238"/>
        <path id="Path_13" data-name="Path 13" d="M579.988,57.714c-.107-.054-3.27-.751-3,2.466s3.485,2.252,3.485,2.145S579.988,57.714,579.988,57.714Z" transform="translate(-569.472 -39.359)" fill="#ffbe9d"/>
        <path id="Path_14" data-name="Path 14" d="M580.044,62.12a.664.664,0,0,1-.161.107.57.57,0,0,1-.429.054A1.383,1.383,0,0,1,578.7,61.1a2.045,2.045,0,0,1,.054-.8.682.682,0,0,1,.375-.483.258.258,0,0,1,.322.107.415.415,0,0,1,.054.161s.054-.054,0-.214c-.054-.054-.054-.161-.161-.214a.68.68,0,0,0-.322-.054.689.689,0,0,0-.536.536,1.72,1.72,0,0,0-.107.911,1.319,1.319,0,0,0,.965,1.287.432.432,0,0,0,.483-.161C580.044,62.173,580.044,62.12,580.044,62.12Z" transform="translate(-570.117 -40.28)" fill="#eb996e"/>
        <path id="Path_15" data-name="Path 15" d="M591.648,29.159a7.439,7.439,0,0,0-9.061-5.361,7.336,7.336,0,0,0-3.485,1.984,15.261,15.261,0,0,1-2.252,2.305,11.553,11.553,0,0,1-2.681,1.394c-1.126.429-2.788,3.11-2.734,4.343l-.536,5.308c.054,1.233,1.662,1.93,2.841,1.555a5.022,5.022,0,0,0,2.573-2.573,8.819,8.819,0,0,1,2.252-2.949c1.662-1.179,3.967-.751,6-.375s4.343.7,5.951-.643A5.365,5.365,0,0,0,591.648,29.159Z" transform="translate(-566.656 -23.565)" fill="#263238"/>
        <path id="Path_16" data-name="Path 16" d="M616.076,65.274a.456.456,0,0,1-.161-.268,2.368,2.368,0,0,1-.322-.858,5.6,5.6,0,0,1,.482-3.217,15.942,15.942,0,0,0,.7-2.091,4.3,4.3,0,0,0-.107-2.466,22.528,22.528,0,0,1-.911-2.681,9.776,9.776,0,0,1-.161-3.056,38.483,38.483,0,0,0,.429-5.844,7.054,7.054,0,0,0-1.823-4.289,7.419,7.419,0,0,0-2.573-1.876c-.7-.322-1.126-.375-1.126-.429.107,0,.214.054.322.054a5.269,5.269,0,0,1,.858.268A7.16,7.16,0,0,1,614.36,40.4a7.031,7.031,0,0,1,1.93,4.4,38.291,38.291,0,0,1-.375,5.9,11.28,11.28,0,0,0,.107,3,22.506,22.506,0,0,0,.911,2.681,4.677,4.677,0,0,1,.107,2.573,14.491,14.491,0,0,1-.751,2.145,5.649,5.649,0,0,0-.536,3.11A2.5,2.5,0,0,0,616.076,65.274Z" transform="translate(-585.026 -30.354)" fill="#455a64"/>
        <path id="Path_17" data-name="Path 17" d="M621.675,351.8l-.483,9.114s9.436,3.378,9.543,5.04l-18.336.054.161-14.207Z" transform="translate(-585.907 -175.824)" fill="#ff725e"/>
        <g id="Group_1" data-name="Group 1" transform="translate(26.493 175.976)" opacity="0.3">
          <path id="Path_18" data-name="Path 18" d="M621.675,351.8l-.483,9.114s9.436,3.378,9.543,5.04l-18.336.054.161-14.207Z" transform="translate(-612.4 -351.8)"/>
        </g>
        <g id="Group_2" data-name="Group 2" transform="translate(29.058 184.254)" opacity="0.6">
          <path id="Path_19" data-name="Path 19" d="M617.729,367.272a.711.711,0,0,0-.536.8.688.688,0,0,0,.858.482.769.769,0,0,0,.536-.858.74.74,0,0,0-.911-.429" transform="translate(-617.185 -367.239)" fill="#fff"/>
        </g>
        <g id="Group_3" data-name="Group 3" transform="translate(26.44 188.683)" opacity="0.6">
          <path id="Path_20" data-name="Path 20" d="M612.3,376.948V375.5l17.639.483s.8.322.7.911Z" transform="translate(-612.3 -375.5)" fill="#fff"/>
        </g>
        <path id="Path_21" data-name="Path 21" d="M627.851,368.528c0,.107-.429.107-.911.429-.429.268-.7.643-.751.59s.054-.536.59-.858S627.9,368.421,627.851,368.528Z" transform="translate(-592.298 -183.545)" fill="#263238"/>
        <path id="Path_22" data-name="Path 22" d="M631.814,369.959c0,.107-.375.214-.7.59s-.429.751-.483.751c-.107,0-.161-.482.268-.965C631.278,369.905,631.814,369.852,631.814,369.959Z" transform="translate(-594.33 -184.225)" fill="#263238"/>
        <path id="Path_23" data-name="Path 23" d="M634.8,372.839c-.107,0-.214-.429.054-.858.268-.483.643-.643.7-.59s-.214.322-.429.7S634.854,372.839,634.8,372.839Z" transform="translate(-596.245 -184.907)" fill="#263238"/>
        <path id="Path_24" data-name="Path 24" d="M627.426,364.417c-.054.054-.429-.054-.965,0s-.911.214-.965.107c-.054-.054.322-.375.965-.429S627.479,364.363,627.426,364.417Z" transform="translate(-591.979 -181.524)" fill="#263238"/>
        <g id="Group_4" data-name="Group 4" transform="translate(26.547 177.477)" opacity="0.3">
          <path id="Path_25" data-name="Path 25" d="M621.614,354.868l-.054,1.662-9.061-.054.054-1.876Z" transform="translate(-612.5 -354.6)"/>
        </g>
        <path id="Path_26" data-name="Path 26" d="M626.784,360.048a1.329,1.329,0,0,1-.911,0,6.484,6.484,0,0,1-.965-.268,2.505,2.505,0,0,1-.536-.268.535.535,0,0,1-.268-.214.4.4,0,0,1-.054-.483.543.543,0,0,1,.375-.214.68.68,0,0,1,.322.054,2.614,2.614,0,0,1,.59.214,4.63,4.63,0,0,1,.858.536,1.825,1.825,0,0,1,.536.7,4.3,4.3,0,0,0-.7-.536,5.859,5.859,0,0,0-.8-.429c-.161-.054-.375-.107-.536-.161-.214-.054-.375-.054-.429.054s0,.054,0,.107a.74.74,0,0,0,.214.161c.161.107.322.161.483.268a2.639,2.639,0,0,0,.911.322A2.5,2.5,0,0,1,626.784,360.048Z" transform="translate(-591.284 -178.978)" fill="#263238"/>
        <path id="Path_27" data-name="Path 27" d="M628.814,359.088c-.054,0-.214-.268-.214-.858a3.034,3.034,0,0,1,.161-.965,2.5,2.5,0,0,1,.268-.536.627.627,0,0,1,.59-.429.4.4,0,0,1,.375.268c.054.107.054.214.107.322a1.1,1.1,0,0,1,0,.59,2.039,2.039,0,0,1-.429.911,1.307,1.307,0,0,1-.751.536,3.819,3.819,0,0,0,.59-.643,2.526,2.526,0,0,0,.322-.8.908.908,0,0,0,0-.536c0-.214-.107-.322-.161-.322a.715.715,0,0,0-.322.268,1.9,1.9,0,0,0-.214.483,5.016,5.016,0,0,0-.214.858A4.86,4.86,0,0,0,628.814,359.088Z" transform="translate(-593.422 -177.911)" fill="#263238"/>
        <path id="Path_28" data-name="Path 28" d="M612.568,349.2l.965,12.331,3.646,9.65a1.234,1.234,0,0,1-.7,1.555.187.187,0,0,0-.107.054h0a1.361,1.361,0,0,1-1.179-.268c-2.091-1.662-9.865-7.881-9.865-8.792,0-1.072-1.93-12.974-1.93-12.974Z" transform="translate(-581.732 -174.618)" fill="#ff725e"/>
        <g id="Group_5" data-name="Group 5" transform="translate(23.544 188.307)" opacity="0.6">
          <path id="Path_29" data-name="Path 29" d="M618,384.665,606.9,374.8l.054.536a1.918,1.918,0,0,0,.59,1.179c.911.858,3.431,3.217,9.275,7.881a1.324,1.324,0,0,0,1.18.268Z" transform="translate(-606.9 -374.8)" fill="#fff"/>
        </g>
        <g id="Group_6" data-name="Group 6" transform="translate(24.652 184.027)" opacity="0.6">
          <path id="Path_30" data-name="Path 30" d="M610,366.915a.793.793,0,0,1,.322.965.715.715,0,0,1-.965.268.784.784,0,0,1-.322-1.019.773.773,0,0,1,1.072-.161" transform="translate(-608.965 -366.817)" fill="#fff"/>
        </g>
        <path id="Path_31" data-name="Path 31" d="M621.172,382.155a3.072,3.072,0,0,1,1.019-1.019,4.112,4.112,0,0,1,1.448-.375q0-.08-.483-.161a2.177,2.177,0,0,0-1.126.268,1.95,1.95,0,0,0-.751.858C621.119,381.94,621.119,382.155,621.172,382.155Z" transform="translate(-589.961 -189.183)" fill="#263238"/>
        <path id="Path_32" data-name="Path 32" d="M623.194,385.565a8.542,8.542,0,0,1,1.072-.59,8.425,8.425,0,0,1,1.233-.214,1.477,1.477,0,0,0-1.34,0A1.294,1.294,0,0,0,623.194,385.565Z" transform="translate(-590.911 -191.039)" fill="#263238"/>
        <path id="Path_33" data-name="Path 33" d="M617.7,378.274a6.831,6.831,0,0,1,3.378-1.608,3.036,3.036,0,0,0-1.93.322A2.643,2.643,0,0,0,617.7,378.274Z" transform="translate(-588.365 -187.339)" fill="#263238"/>
        <path id="Path_34" data-name="Path 34" d="M616.5,372.254a12.022,12.022,0,0,1,1.608-.322c.911-.054,1.662.054,1.662,0a2.722,2.722,0,0,0-1.716-.268A1.974,1.974,0,0,0,616.5,372.254Z" transform="translate(-587.809 -185.019)" fill="#263238"/>
        <path id="Path_35" data-name="Path 35" d="M615.8,365.4a8.4,8.4,0,0,1,1.662-.429,6.078,6.078,0,0,1,1.716.322,2.426,2.426,0,0,0-.429-.322,3.685,3.685,0,0,0-1.287-.268,2.491,2.491,0,0,0-1.233.322A1.617,1.617,0,0,0,615.8,365.4Z" transform="translate(-587.484 -181.808)" fill="#263238"/>
        <path id="Path_36" data-name="Path 36" d="M616.984,361.988a1.485,1.485,0,0,0-.054-.483,3.894,3.894,0,0,0-.482-1.179,1.362,1.362,0,0,0-.7-.643.6.6,0,0,0-.59.161,1.081,1.081,0,0,0-.161.59,1.937,1.937,0,0,0,1.769,1.555,2.033,2.033,0,0,0,1.984-1.233.747.747,0,0,0,0-.59.51.51,0,0,0-.536-.214,2.019,2.019,0,0,0-.8.483,2.8,2.8,0,0,0-.751,1.019.609.609,0,0,0-.161.429,4.9,4.9,0,0,1,1.072-1.287,1.281,1.281,0,0,1,.7-.375.258.258,0,0,1,.322.107.458.458,0,0,1,0,.375,1.826,1.826,0,0,1-1.716,1.019,1.657,1.657,0,0,1-1.5-1.287.645.645,0,0,1,.107-.429c.054-.107.214-.107.322-.107a1.162,1.162,0,0,1,.59.536A5.474,5.474,0,0,1,616.984,361.988Z" transform="translate(-587.113 -179.471)" fill="#263238"/>
        <path id="Path_37" data-name="Path 37" d="M622.989,167.107s5.737,10.4,5.629,21.713-11.366,80.955-11.366,80.955l-13.564-3.7c-.322,2.252,5.147-22.839,7.238-34.956,2.037-11.9-4.235-55.436-4.235-55.436L621.97,167" transform="translate(-581.859 -90.1)" fill="#198601"/>
        <path id="Path_38" data-name="Path 38" d="M579.293,176.4s-4.557,11.312-3.056,20.158S589.1,278,589.1,278l13.3-2.573-5.629-94.305Z" transform="translate(-568.991 -94.461)" fill="#198601"/>
        <path id="Path_39" data-name="Path 39" d="M620.607,206v.214c0,.161.054.375.054.59.054.536.107,1.34.161,2.359.161,2.037.375,5.04.59,8.739.483,7.4.965,17.585,1.287,28.9s.375,21.5.322,28.9c0,3.7-.054,6.7-.107,8.739,0,1.019-.054,1.823-.054,2.413V275.7c0-7.4-.107-17.639-.429-28.9s-.8-21.5-1.233-28.844c-.214-3.7-.375-6.648-.536-8.739-.054-1.019-.107-1.823-.161-2.359v-.643C620.607,206.107,620.607,206.054,620.607,206Z" transform="translate(-589.664 -108.191)" fill="#455a64"/>
        <path id="Path_40" data-name="Path 40" d="M577.03,88.076s-6.38,2.627-8.042,3.7,5.683,24.019,5.683,24.019,3.485,9.436,2.359,13.618c-.643,2.305-1.716,4.772-2.252,6.97a4.121,4.121,0,0,0,3.056,4.986c3.914.965,11.527,2.252,18.175.054a46.37,46.37,0,0,0,11.259-5.415,4.132,4.132,0,0,0,1.287-5.415,10.824,10.824,0,0,0-1.608-2.252c-2.145-2.305-3.753-10.991-4.182-13.35a4.355,4.355,0,0,1-.054-1.179c.268-2.252,1.072-10.508-.161-14.529a47.873,47.873,0,0,0-4.343-9.221,4.116,4.116,0,0,0-2.681-1.93l-6.541-1.448a6.166,6.166,0,0,0-1.716.107l-9.811,1.34Z" transform="translate(-565.656 -52.833)" fill="#ff9f1c"/>
        <g id="Group_7" data-name="Group 7" transform="translate(10.356 63.872)" opacity="0.3">
          <path id="Path_41" data-name="Path 41" d="M583.64,154.495l-1.34,3.914s8.364-2.466,11.151-5.522,5.522-5.254,6.755-5.361,6.594.107,7.506.911,3.967,2.9,3.967,2.9l-1.287-4.235-3.431-2.9-10.508-1.5Z" transform="translate(-582.3 -142.7)"/>
        </g>
        <path id="Path_42" data-name="Path 42" d="M566.411,96.2s-2.734,1.823-2.949,6.648c0,0-.054,1.555-.107,3.86-.161,6.541-.322,19.3.107,22.464.8,5.683,5.308,6.541,7.72,6.648s15.548-9.811,15.548-9.811l-3.7-6.058-9.382,2.091s-.054-9.114.054-12.17S566.411,96.2,566.411,96.2Z" transform="translate(-563.078 -57.258)" fill="#ff9f1c"/>
        <path id="Path_43" data-name="Path 43" d="M620,89.5s5.9,1.608,8.042,6.862c1.93,4.611,14.154,25.413,7.291,28.9-4.986,2.52-10.937-3.967-10.937-3.967Z" transform="translate(-589.432 -54.15)" fill="#ff9f1c"/>
        <path id="Path_44" data-name="Path 44" d="M634.258,112.8a11.427,11.427,0,0,1-2.949,1.072,10.137,10.137,0,0,1-3.11.429c0-.054,1.394-.322,3.056-.751C632.918,113.171,634.258,112.742,634.258,112.8Z" transform="translate(-593.236 -64.954)" fill="#fff"/>
        <path id="Path_45" data-name="Path 45" d="M638.744,121.8a10.977,10.977,0,0,1-2.841.911,9.362,9.362,0,0,1-3,.214c0-.054,1.34-.161,2.949-.483S638.69,121.742,638.744,121.8Z" transform="translate(-595.416 -69.129)" fill="#fff"/>
        <path id="Path_46" data-name="Path 46" d="M628.353,119.236a17.21,17.21,0,0,0,.375-2.305,8.928,8.928,0,0,0-1.555-5.308,7.632,7.632,0,0,0-1.394-1.555,4.583,4.583,0,0,1-1.18-1.5h0c.214-1.126.375-2.145.483-2.9a7.577,7.577,0,0,1,.214-1.072,7.984,7.984,0,0,1-.107,1.126c-.107.751-.214,1.716-.375,2.9v-.054c.483,1.019,1.769,1.716,2.573,3a8.838,8.838,0,0,1,1.5,5.415,9.66,9.66,0,0,1-.322,1.716C628.514,118.861,628.406,119.075,628.353,119.236Z" transform="translate(-591.566 -61.155)" fill="#263238"/>
        <path id="Path_47" data-name="Path 47" d="M633.159,132.79a7.879,7.879,0,0,1-.429-2.949,5.266,5.266,0,0,0-.161-1.823A1.386,1.386,0,0,0,631.175,127l-.375,4.4Z" transform="translate(-594.442 -71.545)" fill="#ffbe9d"/>
        <path id="Path_48" data-name="Path 48" d="M624.4,118.306l-1.34,15.6-7.559.429L615.929,119a.856.856,0,0,1,.7-.8l6.862-.8a.833.833,0,0,1,.911.7Z" transform="translate(-587.345 -67.087)" fill="#263238"/>
        <path id="Path_49" data-name="Path 49" d="M617.254,123.708a1.485,1.485,0,0,0,.054-.483c0-.322.054-.751.107-1.287s.054-1.179.161-1.876v-.268a.407.407,0,0,1,.107-.214.741.741,0,0,1,.214-.161c.107,0,.161-.054.268-.054l1.18-.161c1.608-.214,3.11-.375,4.128-.536l1.233-.161a1.566,1.566,0,0,0,.483-.107,1.485,1.485,0,0,0-.483.054l-1.287.161c-1.072.107-2.52.268-4.128.483l-1.179.161a.68.68,0,0,0-.322.054,1.169,1.169,0,0,0-.268.161c-.054.107-.107.161-.161.268v.268c-.054.7-.054,1.34-.107,1.876a12.185,12.185,0,0,0-.054,1.287A2.222,2.222,0,0,1,617.254,123.708Z" transform="translate(-588.134 -67.556)" fill="#455a64"/>
        <path id="Path_50" data-name="Path 50" d="M623.983,120.956a.384.384,0,0,1,.482-.268.646.646,0,0,1,.268.268.609.609,0,0,1-.161.429.326.326,0,0,1-.429,0A.359.359,0,0,1,623.983,120.956Z" transform="translate(-591.27 -68.611)" fill="#fafafa"/>
        <path id="Path_51" data-name="Path 51" d="M621.258,129.754c.161,0,4.4,1.608,4.4,1.608l2.359,1.93a4.226,4.226,0,0,1,.536,3.217c-.375,2.037-1.287,2.841-3.485,3.7l-4.4-.161-2.413-1.5a1.336,1.336,0,0,1-.59-1.394v-.107l-.322-.375a.819.819,0,0,1-.054-.858h0a.72.72,0,0,1,1.019-.268l2.681,1.5h1.716l.161-.59-2.627-1.019-3.431-2.037a.942.942,0,0,1-.322-1.287v-.054h0a.93.93,0,0,1,1.18-.322l3.11,1.394,3.217.965-.643-1.179-3.914-2.2C619.489,130.665,619.006,129.432,621.258,129.754Z" transform="translate(-587.742 -72.798)" fill="#ffbe9d"/>
        <path id="Path_52" data-name="Path 52" d="M613.306,125.819a2.612,2.612,0,0,0-2.2.375c-1.287.751-2.949,1.823-2.949,1.823l-2.52,1.072.214-.7s2.627-.054,2.305-1.93l-1.555.268-1.448-.536-2.359,2.9-.7,3.27-1.5,1.555,2.9,4.879,4.235-1.448,3.753-.214,1.716-1.769v-1.984l1.608-2.091s.107-.965-.751-.965-2.681,2.305-2.681,2.305l-2.037.322s-.375-.268-.107-.483,5.951-3.914,6.165-4.611.429-1.179-.214-1.287a4.1,4.1,0,0,0-1.608.322S613.789,125.926,613.306,125.819Z" transform="translate(-580.433 -70.954)" fill="#ffbe9d"/>
        <path id="Path_53" data-name="Path 53" d="M615.8,131.17c0,.054,1.18-.7,2.573-1.555a27.329,27.329,0,0,0,2.466-1.716c-.858.483-1.716,1.019-2.573,1.555A20.188,20.188,0,0,0,615.8,131.17Z" transform="translate(-587.484 -71.963)" fill="#eb996e"/>
        <path id="Path_54" data-name="Path 54" d="M614.6,140.053a.68.68,0,0,0,.322.054c.214.054.536.054.858.107a5.617,5.617,0,0,0,1.34-.054,4.624,4.624,0,0,0,1.5-.59,6.892,6.892,0,0,0,1.93-2.2c.214-.322.322-.59.429-.751l.161-.322s-.268.375-.643,1.019a7.4,7.4,0,0,1-1.93,2.145,3.451,3.451,0,0,1-1.448.59,10.409,10.409,0,0,1-1.287.107A4.248,4.248,0,0,0,614.6,140.053Z" transform="translate(-586.927 -75.859)" fill="#eb996e"/>
        <path id="Path_55" data-name="Path 55" d="M600.6,133.819l.107-.107.268-.322,1.126-1.126h0c.214-.858.429-1.93.751-3.27h0l2.359-2.841H605.1l1.448.536h.054l1.555-.268-.054-.054a1.179,1.179,0,0,1-.054.751,1.162,1.162,0,0,1-.536.59,4.276,4.276,0,0,1-1.662.483H605.8v.054c-.054.214-.161.429-.214.7l-.054.161.161-.054,2.52-1.072h0c.751-.483,1.555-.965,2.359-1.448a4.819,4.819,0,0,1,1.287-.643,2.472,2.472,0,0,1,1.394-.054h0c.161.054.214.214.268.375v.751l.107-.054c.268-.107.59-.214.858-.322a1.184,1.184,0,0,1,.858,0,.382.382,0,0,1,.161.322,1.566,1.566,0,0,1-.107.482c-.054.161-.054.322-.161.429l-.322.322c-1.019.858-2.037,1.608-3.109,2.359l-1.555,1.072-.751.536-.214.161c-.107.054-.161.107-.161.214a.4.4,0,0,0,.054.268l.161.161h.054l2.037-.322h.054a14.213,14.213,0,0,1,1.769-1.823c.322-.214.7-.536,1.072-.429a.834.834,0,0,1,.429.322,1.906,1.906,0,0,1,.107.536v-.054l-1.608,2.091h0v1.93l-1.716,1.769h.054l-3.753.268h0l-3.11,1.072-.8.268-.214.054-.054.054h.054l.214-.054.8-.268,3.11-1.019h0l3.753-.214h0l1.716-1.769h0v-1.876l1.608-2.091h0a1.36,1.36,0,0,0-.107-.643.535.535,0,0,0-.214-.268l-.322-.161a.923.923,0,0,0-.643.107,4.717,4.717,0,0,0-.536.322,14.214,14.214,0,0,0-1.769,1.823h.054l-2.037.322h.054c-.107-.054-.214-.214-.161-.322s.214-.161.322-.268l.751-.536,1.555-1.072c1.072-.751,2.145-1.5,3.163-2.359.107-.107.268-.214.322-.375a.41.41,0,0,0,.107-.268l.054-.214a1.566,1.566,0,0,0,.107-.483v-.268a.418.418,0,0,0-.214-.214,1.494,1.494,0,0,0-.965-.054,3.1,3.1,0,0,0-.911.322l.107.054a1.306,1.306,0,0,0,0-.643.761.761,0,0,0-.107-.322.535.535,0,0,0-.268-.214h0a2.4,2.4,0,0,0-1.5.054,6.167,6.167,0,0,0-1.34.643c-.8.483-1.608.965-2.359,1.5h0l-2.52,1.072.107.107.214-.7-.054.054a3.326,3.326,0,0,0,1.716-.483,1.184,1.184,0,0,0,.536-.7,1.562,1.562,0,0,0,.054-.858v-.054h-.054l-1.555.268h0l-1.448-.536H605v.054l-2.305,2.9h0c-.268,1.34-.536,2.413-.7,3.27h0c-.483.536-.8.911-1.072,1.179l-.268.322Z" transform="translate(-580.433 -70.858)" fill="#eb996e"/>
        <path id="Path_56" data-name="Path 56" d="M580.115,143.814h-.965a5.306,5.306,0,0,0-3.914,2.091c-.375.483-.482.8-.536.8a1.946,1.946,0,0,1,.375-.911,4.9,4.9,0,0,1,4.128-2.2A1.762,1.762,0,0,1,580.115,143.814Z" transform="translate(-568.419 -79.246)" fill="#263238"/>
        <path id="Path_57" data-name="Path 57" d="M582.9,121.2a57.082,57.082,0,0,1,0,6.058c-.054,3.324-.214,6.058-.268,6.058a57.082,57.082,0,0,1,0-6.058C582.738,123.934,582.845,121.2,582.9,121.2Z" transform="translate(-572.06 -68.855)" fill="#263238"/>
        <path id="Path_58" data-name="Path 58" d="M563.261,111v.7c0,.483,0,1.179-.054,2.037,0,1.823-.054,4.4-.107,7.559s-.054,6.97.054,11.205c0,.536.054,1.072.054,1.608l.054.8c0,.268.054.536.054.8a8.547,8.547,0,0,0,.322,1.608,7.91,7.91,0,0,0,.643,1.555,6.38,6.38,0,0,0,2.305,2.466,7.444,7.444,0,0,0,3.324,1.126h.214a5.3,5.3,0,0,0,2.573-.375,13.847,13.847,0,0,0,2.359-1.179c1.5-.858,2.949-1.716,4.289-2.627a71.139,71.139,0,0,0,7.238-5.469v.161l-3.7-6.058.107.054c-2.573.536-4.664,1.019-6.058,1.34l-1.608.322-.429.054h-.161l.161-.054.429-.107,1.608-.375c1.394-.322,3.431-.858,6.058-1.394h.054l.054.054c1.072,1.716,2.305,3.753,3.7,6.058l.054.107-.054.054a61.766,61.766,0,0,1-7.238,5.576c-1.34.911-2.788,1.823-4.289,2.681a19.364,19.364,0,0,1-2.359,1.179,5.768,5.768,0,0,1-2.681.429h-.214a7.788,7.788,0,0,1-3.431-1.233,6.955,6.955,0,0,1-2.413-2.573,10.062,10.062,0,0,1-.643-1.608,9.091,9.091,0,0,1-.322-1.662l-.107-.8v-.8c0-.536-.054-1.072-.054-1.608-.107-4.235-.054-7.988,0-11.205.054-3.163.107-5.79.214-7.559.054-.858.054-1.555.107-2.037a1.654,1.654,0,0,1,.054-.536C563.261,111.107,563.261,111.054,563.261,111Z" transform="translate(-562.984 -64.123)" fill="#263238"/>
        <path id="Path_59" data-name="Path 59" d="M636.946,153.45a1.045,1.045,0,0,1-.429.054,7.184,7.184,0,0,1-1.072-.054,8.726,8.726,0,0,1-1.608-.375,8.067,8.067,0,0,1-1.823-.858,18.367,18.367,0,0,1-2.9-2.145A9.631,9.631,0,0,1,628.1,149a9.3,9.3,0,0,1,1.126.911,28.414,28.414,0,0,0,2.9,2.091,8.889,8.889,0,0,0,1.769.8,13.159,13.159,0,0,0,1.555.429C636.356,153.4,636.946,153.4,636.946,153.45Z" transform="translate(-593.19 -81.751)" fill="#263238"/>
        <path id="Path_60" data-name="Path 60" d="M643.122,137.566a12.982,12.982,0,0,0-2.627-1.233,13.781,13.781,0,0,0-2.9-.375,5.752,5.752,0,0,1,5.522,1.608Z" transform="translate(-597.596 -75.624)" fill="#263238"/>
        <path id="Path_61" data-name="Path 61" d="M640.678,134.093c0,.107-.8.054-1.716.268s-1.608.59-1.662.536A3.654,3.654,0,0,1,640.678,134.093Z" transform="translate(-597.457 -74.779)" fill="#263238"/>
        <g id="Group_8" data-name="Group 8" transform="translate(4.994 63.589)" opacity="0.3">
          <path id="Path_62" data-name="Path 62" d="M577.768,142.884a3.644,3.644,0,0,0-5.04.7,1.746,1.746,0,0,0-.429,1.019,1.038,1.038,0,0,0,.536.911,1.477,1.477,0,0,0,1.394-.483,6.727,6.727,0,0,1,3.646-1.93" transform="translate(-572.3 -142.172)"/>
        </g>
        <g id="Group_9" data-name="Group 9" transform="translate(39.789 59.134)" opacity="0.3">
          <path id="Path_63" data-name="Path 63" d="M637.361,135.062c1.5-.161,3,.59,4.5.858a1.071,1.071,0,0,0,.8-.107.783.783,0,0,0,0-1.179,2.679,2.679,0,0,0-1.876-.751,6.9,6.9,0,0,0-2.091.161,2.171,2.171,0,0,0-1.5.858" transform="translate(-637.2 -133.863)"/>
        </g>
        <path id="Path_64" data-name="Path 64" d="M583.422,89.843l-.322-4.128a21.517,21.517,0,0,0,7.13,1.072,16.285,16.285,0,0,0,6-1.287l1.179,5.79-3.538,5.415-3.109,1.448-5.522-.858Z" transform="translate(-572.315 -52.295)" fill="#ff9f1c"/>
        <path id="Path_65" data-name="Path 65" d="M577.681,104.891c-.054,0-.161-.7-.482-1.769a10.034,10.034,0,0,0-1.876-3.967,5.962,5.962,0,0,0-3.7-2.145,6.925,6.925,0,0,0-1.823.054.865.865,0,0,1,.483-.161,2.839,2.839,0,0,1,1.34-.054,5.933,5.933,0,0,1,3.86,2.2,10.133,10.133,0,0,1,1.876,4.075c.107.536.214,1.019.268,1.34A1.046,1.046,0,0,1,577.681,104.891Z" transform="translate(-566.146 -57.532)" fill="#263238"/>
        <path id="Path_66" data-name="Path 66" d="M598.594,85.4l.161.483a2.2,2.2,0,0,1,.054.59,1.513,1.513,0,0,1-.214.8,4.055,4.055,0,0,1-.59.751,4.2,4.2,0,0,1-.965.59,11.508,11.508,0,0,1-2.413.751,12.713,12.713,0,0,1-4.5.054,6.091,6.091,0,0,1-1.34-.322l-.483-.161c0-.054.7.161,1.823.322a12.391,12.391,0,0,0,4.45-.161,11.44,11.44,0,0,0,2.305-.7,5.092,5.092,0,0,0,.911-.536,3.692,3.692,0,0,0,.59-.7,1.078,1.078,0,0,0,.214-.7,2.2,2.2,0,0,0-.054-.59C598.647,85.722,598.594,85.561,598.594,85.4Z" transform="translate(-574.728 -52.248)" fill="#263238"/>
        <path id="Path_67" data-name="Path 67" d="M614.892,172c-.054.054-.107.107-.161.107l-.536.322a7.044,7.044,0,0,1-.911.483c-.375.161-.751.375-1.233.59a35.508,35.508,0,0,1-3.324,1.287,39.9,39.9,0,0,1-4.182,1.072,37.494,37.494,0,0,1-4.289.536c-1.18.054-2.359.107-3.538.054a9.7,9.7,0,0,1-1.34-.107c-.375-.054-.751-.054-1.019-.107l-.643-.107-.214-.054h.214l.643.054c.268,0,.643.054,1.019.054s.858.054,1.34.054c1.019,0,2.2,0,3.538-.107a37.552,37.552,0,0,0,8.471-1.608,31.939,31.939,0,0,0,3.324-1.233c.483-.161.858-.375,1.233-.536s.7-.322.911-.429l.59-.268A.187.187,0,0,1,614.892,172Z" transform="translate(-577.14 -92.42)" fill="#263238"/>
        <path id="Path_68" data-name="Path 68" d="M574.526,117.375a5.534,5.534,0,0,1-1.608-.214,20.214,20.214,0,0,1-7.13-2.9,7.333,7.333,0,0,1-1.287-.965c.483.268.911.536,1.394.8a25.606,25.606,0,0,0,3.431,1.716A28.9,28.9,0,0,0,572.971,117C573.507,117.107,573.99,117.214,574.526,117.375Z" transform="translate(-563.687 -65.19)" fill="#fff"/>
        <path id="Path_69" data-name="Path 69" d="M574.13,125.537a8.075,8.075,0,0,1-1.608.054,24.277,24.277,0,0,1-3.914-.429,30.614,30.614,0,0,1-3.807-1.019,7.453,7.453,0,0,1-1.5-.643,7.49,7.49,0,0,1,1.555.483c1.233.375,2.466.7,3.753.965q1.93.322,3.86.483A5.911,5.911,0,0,1,574.13,125.537Z" transform="translate(-563.131 -69.922)" fill="#fff"/>
        <path id="Path_70" data-name="Path 70" d="M606.446,113.9c-.268.107-.59.214-.858.322-.59.161-1.394.429-2.413.7-2.037.59-4.932,1.34-8.1,2.091s-6.058,1.394-8.2,1.823c-1.072.214-1.876.375-2.466.483-.322.054-.59.107-.911.161a4.529,4.529,0,0,1,.911-.268l2.466-.59c2.091-.483,4.986-1.126,8.149-1.93,3.163-.751,6.058-1.5,8.1-2.037l2.466-.643A5.347,5.347,0,0,0,606.446,113.9Z" transform="translate(-572.501 -65.469)" fill="#fff"/>
        <path id="Path_71" data-name="Path 71" d="M589.224,30.4l-.536-.7A42.433,42.433,0,0,0,577.7,32.488a9.439,9.439,0,0,0-3.807,2.413c-1.34,1.608-1.555,3.86-1.716,5.951-.59,7.935-2.573,15.762-.054,23.375.59-.965,3.324-1.072,4.45-1.287a11.6,11.6,0,0,0,3.324-.8,4.548,4.548,0,0,0,2.252-2.9,5.358,5.358,0,0,0-.429-3.646c-.59-1.287-1.716-2.466-1.448-3.86s1.93-2.252,2.305-3.7c.7-2.413-2.52-4.664-2.2-7.184a4.183,4.183,0,0,1,1.608-2.9,2.91,2.91,0,0,1,2.466-.536C587.562,37.956,589.6,33.507,589.224,30.4Z" transform="translate(-566.645 -26.411)" fill="#263238"/>
        <path id="Path_72" data-name="Path 72" d="M572.8,63.034s.107-.161.322-.429a8.445,8.445,0,0,0,.8-1.287,8.8,8.8,0,0,0,.7-2.305,7.845,7.845,0,0,0-.214-3.163c-.322-1.126-1.019-2.252-1.394-3.646a4.365,4.365,0,0,1-.054-2.2,4.834,4.834,0,0,1,1.34-1.93,9.689,9.689,0,0,0,1.555-1.769,3.27,3.27,0,0,0,.214-2.359c-.214-.8-.59-1.608-.911-2.466a5.1,5.1,0,0,1-.322-2.681,7.844,7.844,0,0,1,.8-2.627,6.245,6.245,0,0,1,1.662-2.091,3.485,3.485,0,0,1,1.18-.59,4.637,4.637,0,0,1,1.233-.322c.8-.107,1.662-.107,2.413-.268a3.841,3.841,0,0,0,1.93-1.072c.483-.536.911-1.126,1.34-1.662a9.237,9.237,0,0,1,1.448-1.448,1.5,1.5,0,0,1,.965-.322,4.905,4.905,0,0,1,.911.054,4.111,4.111,0,0,1,2.734,1.662,8.2,8.2,0,0,1,1.126,2.145,3.6,3.6,0,0,1,.161,1.5,1.035,1.035,0,0,1-.161.536,3.469,3.469,0,0,0,.107-.536,3.649,3.649,0,0,0-.214-1.5,7.141,7.141,0,0,0-1.126-2.091,4.075,4.075,0,0,0-2.627-1.555,2.384,2.384,0,0,0-1.716.322,8.909,8.909,0,0,0-1.394,1.448c-.429.536-.858,1.126-1.394,1.716a3.67,3.67,0,0,1-2.037,1.126c-.8.161-1.608.161-2.413.268a4.259,4.259,0,0,0-1.179.322,4.188,4.188,0,0,0-1.072.59,5.27,5.27,0,0,0-1.608,1.984,8.515,8.515,0,0,0-.751,2.52,5.268,5.268,0,0,0,.322,2.573c.268.8.7,1.608.911,2.466a3.564,3.564,0,0,1-.214,2.573,7.422,7.422,0,0,1-1.608,1.823,4.366,4.366,0,0,0-1.287,1.823,3.478,3.478,0,0,0,0,2.091c.375,1.34,1.019,2.466,1.34,3.646a7.287,7.287,0,0,1,.214,3.217,6.858,6.858,0,0,1-.751,2.305,7.516,7.516,0,0,1-.8,1.287c-.107.161-.214.214-.268.322S572.8,63.034,572.8,63.034Z" transform="translate(-567.538 -25.808)" fill="#455a64"/>
      </g>
    </g>
    <g id="Layer_2" transform="translate(24.804 87.58)">
      <g id="freepik--Car--inject-17">
        <rect id="Rectangle_7" data-name="Rectangle 7" width="263.883" height="38.708" transform="translate(16.618 51.915)" fill="#2ec4b6"/>
        <g id="Group_10" data-name="Group 10" transform="translate(16.618 51.915)" opacity="0.5">
          <rect id="Rectangle_8" data-name="Rectangle 8" width="263.883" height="38.708"/>
        </g>
        <path id="Path_73" data-name="Path 73" d="M74.5,289.235A25.442,25.442,0,1,0,100.339,264.2h0A25.379,25.379,0,0,0,74.5,289.235Z" transform="translate(-47.854 -199.201)" fill="#263238"/>
        <path id="Path_74" data-name="Path 74" d="M74.477,310.8v.054a25.465,25.465,0,1,0,50.879,2.305,15.038,15.038,0,0,0,0-1.555v-.054Z" transform="translate(-47.833 -220.82)" fill="#263238"/>
        <path id="Path_75" data-name="Path 75" d="M88.6,295.883A17.855,17.855,0,1,0,106.719,278.3h0A17.815,17.815,0,0,0,88.6,295.883Z" transform="translate(-54.395 -205.742)" fill="#fafafa"/>
        <path id="Path_76" data-name="Path 76" d="M106.721,278.2A17.849,17.849,0,0,0,88.6,295.783h0l35.706.483A17.836,17.836,0,0,0,106.721,278.2Z" transform="translate(-54.397 -205.695)" fill="#e0e0e0"/>
        <path id="Path_77" data-name="Path 77" d="M101.6,302.021A10.885,10.885,0,1,0,112.643,291.3,10.892,10.892,0,0,0,101.6,302.021Z" transform="translate(-60.426 -211.773)" fill="#263238"/>
        <circle id="Ellipse_1" data-name="Ellipse 1" cx="25.466" cy="25.466" r="25.466" transform="translate(219.084 67.204) rotate(-5)" fill="#263238"/>
        <path id="Path_78" data-name="Path 78" d="M437.4,310.8v.054a25.427,25.427,0,0,0,50.825.751v-.054Z" transform="translate(-216.195 -220.82)" fill="#263238"/>
        <path id="Path_79" data-name="Path 79" d="M451.5,295.883A17.855,17.855,0,1,0,469.619,278.3,17.849,17.849,0,0,0,451.5,295.883Z" transform="translate(-222.734 -205.742)" fill="#fafafa"/>
        <path id="Path_80" data-name="Path 80" d="M469.621,278.2A17.849,17.849,0,0,0,451.5,295.783l35.706.483A17.836,17.836,0,0,0,469.621,278.2Z" transform="translate(-222.736 -205.695)" fill="#e0e0e0"/>
        <path id="Path_81" data-name="Path 81" d="M464.6,302.021A10.885,10.885,0,1,0,475.643,291.3,10.892,10.892,0,0,0,464.6,302.021Z" transform="translate(-228.811 -211.773)" fill="#263238"/>
        <path id="Path_82" data-name="Path 82" d="M110.207,173.115s-37.475,2.788-51.361,5.9c-9.811,2.2-28.683,5.951-28.415,17.853l1.448,8.524a12.856,12.856,0,0,0-7.023,11.366c0,8.149-1.716,20.8,14.636,21.338,2.681.107,7.827,0,7.827,0S44.156,203.3,76.163,202.28c32.543-1.019,30.345,35.492,30.345,35.492h135.8s-5.576-35.6,29.433-35.653,29.7,35.867,29.7,35.867,12.867,1.126,18.872-9.7,4.4-18.55,4.4-18.55l-.214-6.862a4.4,4.4,0,0,0-4.235-4.289h0s2.359-17.21-1.233-20.212-23.268-20.963-23.268-20.963l.911-.59a2.241,2.241,0,0,0,.7-3.056,2.316,2.316,0,0,0-1.126-.911c-7.452-2.573-22.249-7.667-25.734-8.846a5.714,5.714,0,0,0-1.608-.322c-2.091-.161-7.935-.536-18.711-.643-13.135-.161-65.247,0-65.247,0s-17.907,1.448-27.932,5.9C146.61,153.493,110.207,173.115,110.207,173.115Z" transform="translate(-24.804 -142.967)" fill="#2ec4b6"/>
        <g id="Group_11" data-name="Group 11" transform="translate(3.94 72.655)" opacity="0.4">
          <path id="Path_83" data-name="Path 83" d="M37.808,278.654c-1.34-.268-3.431-.322-4.45.643a4.123,4.123,0,0,0-1.072,2.788,12.5,12.5,0,0,0,.107,4.235,5.1,5.1,0,0,0,2.359,3.378,3.322,3.322,0,0,0,3.914-.482,5.438,5.438,0,0,0,.965-3.7,33.766,33.766,0,0,0-.214-5.2,2.158,2.158,0,0,0-.483-1.072,1.328,1.328,0,0,0-1.126-.59" transform="translate(-32.153 -278.485)"/>
        </g>
        <g id="Group_12" data-name="Group 12" transform="translate(7.665 52.76)" opacity="0.6">
          <path id="Path_84" data-name="Path 84" d="M40.548,250.985c3.967,0,7.827-.214,11.795-.482A1.478,1.478,0,0,0,54,248.68c0-2.145-.107-4.557-1.716-5.951A6.733,6.733,0,0,0,48.7,241.5a24.262,24.262,0,0,0-9.6.965Z" transform="translate(-39.1 -241.375)" fill="#fafafa"/>
        </g>
        <path id="Path_85" data-name="Path 85" d="M126.232,279.8v-.322c0-.214-.054-.59-.054-1.019-.054-.858-.107-2.2-.214-3.86s-.214-3.7-.429-6.058a50.194,50.194,0,0,0-1.394-7.935,36.231,36.231,0,0,0-3.807-8.9,27.913,27.913,0,0,0-7.4-8.256c-6.434-4.557-15.065-7.131-24.179-7.238a39.088,39.088,0,0,0-23.965,7.559,34.134,34.134,0,0,0-7.774,7.935,38.848,38.848,0,0,0-4.611,8.578,39.258,39.258,0,0,0-1.93,7.774,32.566,32.566,0,0,0-.214,6.058,22.4,22.4,0,0,0,.483,3.807,8.82,8.82,0,0,0,.161.965,2.438,2.438,0,0,1,.054.322,1.5,1.5,0,0,0-.054-.322c-.054-.214-.107-.536-.214-.965a29.57,29.57,0,0,1-.536-3.807,32.566,32.566,0,0,1,.214-6.058,35.462,35.462,0,0,1,1.876-7.828A38.011,38.011,0,0,1,56.8,251.6a34.6,34.6,0,0,1,7.827-7.988A39.26,39.26,0,0,1,88.756,236c9.114.107,17.853,2.734,24.34,7.345a29.06,29.06,0,0,1,7.452,8.31,36.6,36.6,0,0,1,3.807,8.953,50.194,50.194,0,0,1,1.394,7.935c.214,2.359.322,4.4.429,6.058s.107,2.949.161,3.86a5.531,5.531,0,0,0,.054,1.019Z" transform="translate(-36.54 -186.12)" fill="#fff"/>
        <path id="Path_86" data-name="Path 86" d="M193.761,241.107v-1.126c0-.751-.054-1.876-.107-3.27-.107-2.9-.214-7.131-.375-12.492s-.322-11.9-.536-19.354q-.08-2.815-.161-5.79a18.526,18.526,0,0,1,.107-3l.214-1.555c.107-.483.214-1.019.322-1.555a32.775,32.775,0,0,1,5.576-11.9h0l23.482-14.8,6.38-4.021a48.509,48.509,0,0,1,6.7-3.753,71.481,71.481,0,0,1,7.291-2.949c1.233-.429,2.52-.8,3.807-1.179s2.573-.7,3.914-.965a90.364,90.364,0,0,1,15.172-1.93c4.879-.214,9.758-.214,14.69.054h.161v.161c-2.2,10.079-4.4,19.569-6.326,28.254h0a32.771,32.771,0,0,0-2.841,6.058,17.851,17.851,0,0,0-.965,6.273c.161,2.091.214,4.128.268,6.112s.107,3.914.107,5.79c.107,7.452.107,13.993.161,19.354s0,9.6,0,12.438v0c0-2.9-.054-7.077-.054-12.438-.054-5.361-.107-11.9-.214-19.354-.054-1.876-.107-3.807-.107-5.79-.054-1.984-.107-4.021-.268-6.112a16.222,16.222,0,0,1,.965-6.38,31.682,31.682,0,0,1,2.841-6.112v.054l6.219-28.147.107.161c-4.879-.268-9.758-.268-14.636-.054a89.735,89.735,0,0,0-15.119,1.93c-1.34.268-2.627.643-3.914.965s-2.573.751-3.807,1.179a71.113,71.113,0,0,0-7.291,2.9,48.509,48.509,0,0,0-6.7,3.753l-6.38,3.967-23.536,14.8h0a32.737,32.737,0,0,0-3.485,5.737,29.985,29.985,0,0,0-2.091,6.058c-1.072,4.075-.536,8.1-.536,11.795.161,7.452.322,13.993.483,19.354.107,5.361.214,9.6.268,12.492,0,1.448.054,2.52.054,3.27v.858Z" transform="translate(-102.621 -146.838)" fill="#263238"/>
        <path id="Path_87" data-name="Path 87" d="M355.9,152.751h.858l2.52-.054,9.382-.161L400.238,152h.054l.054.054,4.4,5.415,12.653,15.494,1.448,1.769a9.973,9.973,0,0,1,1.179,1.876,10.828,10.828,0,0,1,.965,4.128,9.785,9.785,0,0,1-.751,3.914l-1.448,3.378-4.4,10.079c-.536,1.179-.911,2.091-1.18,2.734a3.891,3.891,0,0,0-.322.751.641.641,0,0,1-.107.268.541.541,0,0,1,.107-.268,3.845,3.845,0,0,0,.268-.751q.4-.965,1.126-2.734l4.289-10.133c.8-2.145,2.252-4.4,2.145-7.184a9.428,9.428,0,0,0-2.091-5.9l-1.448-1.769c-3.86-4.772-8.149-9.972-12.653-15.494l-4.4-5.415.107.054-31.578.483-9.382.107h-2.52l-.858-.107Z" transform="translate(-178.39 -147.157)" fill="#263238"/>
        <path id="Path_88" data-name="Path 88" d="M314.754,226.783a2.244,2.244,0,0,0,.375-.054,3.319,3.319,0,0,0,1.019-.375,2.52,2.52,0,0,0,1.019-1.34,2.37,2.37,0,0,0,.107-1.072,2.675,2.675,0,0,0-.268-1.126,2.532,2.532,0,0,0-2.2-1.34H304.246a2.492,2.492,0,0,0-2.466,2.2,2.9,2.9,0,0,0,.322,1.662,2.424,2.424,0,0,0,1.233,1.072,4.957,4.957,0,0,0,1.555.214h4.343l4.021.054h0l-4.021.054h-5.147a1.7,1.7,0,0,1-.858-.214,2.617,2.617,0,0,1-1.34-1.179,2.672,2.672,0,0,1-.322-1.823,2.717,2.717,0,0,1,2.681-2.413h10.562a2.678,2.678,0,0,1,2.627,2.681,3.457,3.457,0,0,1-.161,1.072,2.676,2.676,0,0,1-1.072,1.34,2.57,2.57,0,0,1-1.072.375A1.344,1.344,0,0,1,314.754,226.783Z" transform="translate(-153.167 -179.21)" fill="#263238"/>
        <path id="Path_89" data-name="Path 89" d="M445.954,226.783c.107,0,.268-.054.375-.054a3.318,3.318,0,0,0,1.019-.375,2.52,2.52,0,0,0,1.019-1.34,2.37,2.37,0,0,0,.107-1.072,2.675,2.675,0,0,0-.268-1.126,2.532,2.532,0,0,0-2.2-1.34H435.5a2.492,2.492,0,0,0-2.466,2.2,2.9,2.9,0,0,0,.322,1.662,2.424,2.424,0,0,0,1.233,1.072,5.3,5.3,0,0,0,1.608.214h4.343l4.021.054h0l-4.021.054h-5.254a1.7,1.7,0,0,1-.858-.214,2.844,2.844,0,0,1-1.34-1.179,2.672,2.672,0,0,1-.322-1.823A2.73,2.73,0,0,1,435.5,221.1h10.562a2.714,2.714,0,0,1,2.359,1.448,3.231,3.231,0,0,1,.322,1.233,3.457,3.457,0,0,1-.161,1.072,2.925,2.925,0,0,1-1.072,1.34,2.569,2.569,0,0,1-1.072.375A1.905,1.905,0,0,1,445.954,226.783Z" transform="translate(-214.027 -179.21)" fill="#263238"/>
        <path id="Path_90" data-name="Path 90" d="M555.786,210.2h-14.1a5.224,5.224,0,0,0-4.611,2.788h0a5.114,5.114,0,0,0-.161,4.5l5.522,12.545,14.154-.107S559.539,214.007,555.786,210.2Z" transform="translate(-262.151 -174.154)" fill="#fafafa"/>
        <path id="Path_91" data-name="Path 91" d="M207.8,180.785l72.645-1.34,47.287-.858,15.6-9.007a2.441,2.441,0,0,0,.911-3.324c-.054-.107-.107-.161-.161-.268l-9.7-12.76a5.492,5.492,0,0,0-4.235-2.145l-52.862-.429s-19.89-1.179-35.6,7.613C225.063,167.6,207.8,180.785,207.8,180.785Z" transform="translate(-109.69 -146.508)" fill="#263238"/>
        <path id="Path_92" data-name="Path 92" d="M229.822,153.3s3.646,1.662,1.287,3.217-39.191,24.769-39.191,24.769l-8.417-3.807C198.458,169.062,213.577,160.967,229.822,153.3Z" transform="translate(-98.418 -147.76)" fill="#455a64"/>
        <path id="Path_93" data-name="Path 93" d="M124.908,206.5l-.214.054-.7.161-2.573.536c-2.252.429-5.522,1.072-9.543,1.769-8.042,1.394-19.247,3-31.685,4.075-3.11.268-6.165.483-9.114.7s-5.79.375-8.471.643a75.152,75.152,0,0,0-14.154,2.413,38.073,38.073,0,0,0-8.9,3.7c-1.019.536-1.716,1.072-2.252,1.394l-.59.375-.214.107a.74.74,0,0,1,.214-.161l.536-.375c.483-.322,1.233-.858,2.2-1.394a38.4,38.4,0,0,1,8.9-3.807A70.514,70.514,0,0,1,62.5,214.22c2.681-.268,5.522-.429,8.471-.643s5.951-.429,9.114-.7c12.438-1.072,23.643-2.681,31.685-4.021,4.021-.7,7.291-1.287,9.543-1.662l2.573-.483.7-.107h.322Z" transform="translate(-30.229 -172.438)" fill="#263238"/>
        <path id="Path_94" data-name="Path 94" d="M564.26,267.107c0,.054-4.825.107-10.83.107s-10.83-.054-10.83-.107,4.825-.107,10.83-.107S564.26,267,564.26,267.107Z" transform="translate(-264.995 -200.502)" fill="#263238"/>
        <path id="Path_95" data-name="Path 95" d="M312.177,290.107c0,.054-27.343.107-61.011.107s-61.065-.054-61.065-.107S217.443,290,251.165,290,312.177,290.054,312.177,290.107Z" transform="translate(-101.48 -211.171)" fill="#263238"/>
        <path id="Path_96" data-name="Path 96" d="M45.863,267.807c0,.054-3.86.107-8.632.107s-8.632-.054-8.632-.107,3.86-.107,8.632-.107S45.863,267.754,45.863,267.807Z" transform="translate(-26.565 -200.827)" fill="#263238"/>
        <path id="Path_97" data-name="Path 97" d="M527.54,168.9s-3.217,3.646-1.984,6.273c1.287,2.681,14.475,12.009,14.475,12.009l9.6,1.823Z" transform="translate(-256.958 -154.996)" fill="#455a64"/>
        <path id="Path_98" data-name="Path 98" d="M358.044,156.8,355.9,180.014l38.494-1.072,15.494-9.007L399.863,156.8Z" transform="translate(-178.39 -149.384)" fill="#455a64"/>
        <path id="Path_99" data-name="Path 99" d="M224.8,181.258s23.214-16.781,32.382-20.1c8.846-3.217,13.457-4.021,21.767-4.235,7.935-.214,12.76,0,12.76,0l-6.165,23.59Z" transform="translate(-117.576 -149.394)" fill="#455a64"/>
        <path id="Path_100" data-name="Path 100" d="M218.4,195.727h0a4.059,4.059,0,0,1,2.091-3.538l5.308-3a10.015,10.015,0,0,1,4.986-1.287h0a10.527,10.527,0,0,1,3.163.483,5.782,5.782,0,0,1,3.86,5.308h0a5.885,5.885,0,0,1-5.683,6.112h-9.7a4.133,4.133,0,0,1-4.021-4.075Z" transform="translate(-114.607 -163.81)" fill="#2ec4b6"/>
        <path id="Path_101" data-name="Path 101" d="M218.354,195.572a4.371,4.371,0,0,0,.054.536,3.335,3.335,0,0,0,.483,1.394,4.005,4.005,0,0,0,1.662,1.608,4.215,4.215,0,0,0,1.394.429,8.6,8.6,0,0,0,1.662,0h8.1a6.409,6.409,0,0,0,2.252-.375,4.893,4.893,0,0,0,1.984-1.287,5.617,5.617,0,0,0,1.34-2.037,5.778,5.778,0,0,0,.375-2.52,5.6,5.6,0,0,0-2.413-4.235,6.161,6.161,0,0,0-2.2-.911,10.85,10.85,0,0,0-2.305-.268,10.305,10.305,0,0,0-4.182.911c-.59.268-1.179.643-1.716.911l-1.608.858-2.734,1.5a4.348,4.348,0,0,0-1.662,1.608,6.124,6.124,0,0,0-.483,1.394v.482a1.824,1.824,0,0,1-.054-.536,4.954,4.954,0,0,1,.429-1.448,4.133,4.133,0,0,1,1.662-1.662l2.734-1.555,1.608-.911c.536-.322,1.126-.643,1.716-.965a10.133,10.133,0,0,1,6.648-.643,6.22,6.22,0,0,1,2.305.965,6.025,6.025,0,0,1,2.52,4.4,5.987,5.987,0,0,1-3.914,6.112,5.893,5.893,0,0,1-2.359.375h-8.1c-.536,0-1.126,0-1.662-.054a4,4,0,0,1-3.056-2.145,4.146,4.146,0,0,1-.429-1.448C218.407,195.947,218.354,195.733,218.354,195.572Z" transform="translate(-114.561 -163.654)" fill="#263238"/>
        <path id="Path_102" data-name="Path 102" d="M488.283,281.544v-.322c0-.214.054-.536.054-.965s.054-.965.107-1.555c.054-.643.054-1.34.054-2.145.054-.8,0-1.716,0-2.681a23.655,23.655,0,0,0-.214-3.217,41.883,41.883,0,0,0-1.394-7.667,35.947,35.947,0,0,0-1.5-4.235,28.124,28.124,0,0,0-2.305-4.343,30.2,30.2,0,0,0-7.452-7.774,34.749,34.749,0,0,0-10.669-5.254,46.151,46.151,0,0,0-12.653-1.716,42.012,42.012,0,0,0-12.653,1.823,36.522,36.522,0,0,0-5.629,2.305,36.126,36.126,0,0,0-4.879,3.163,42.946,42.946,0,0,0-7.559,7.72,33.288,33.288,0,0,0-2.52,4.182,35.975,35.975,0,0,0-1.716,4.182,47.322,47.322,0,0,0-2.734,13.4q-.08,2.413,0,3.7c0,.429.054.751.054.965v.322a1.5,1.5,0,0,0-.054-.322,4.644,4.644,0,0,1-.054-.965c-.054-1.233-.054-2.466,0-3.753a50.008,50.008,0,0,1,2.681-13.4,41.162,41.162,0,0,1,1.716-4.235,25.955,25.955,0,0,1,2.52-4.235,41.512,41.512,0,0,1,7.559-7.774,29.971,29.971,0,0,1,4.932-3.217,35.244,35.244,0,0,1,5.683-2.359,42.66,42.66,0,0,1,12.706-1.876,44.665,44.665,0,0,1,12.76,1.716,33.293,33.293,0,0,1,14.9,9.007,27,27,0,0,1,3.27,4.128,28.124,28.124,0,0,1,2.305,4.343,31.306,31.306,0,0,1,1.5,4.289,37.473,37.473,0,0,1,1.287,7.72c.107,1.126.107,2.2.161,3.217.054.965,0,1.876,0,2.681s-.054,1.5-.107,2.145-.107,1.126-.107,1.555c-.054.429-.054.751-.107.965C488.336,281.437,488.283,281.544,488.283,281.544Z" transform="translate(-205.584 -187.65)" fill="#fff"/>
        <path id="Path_103" data-name="Path 103" d="M299.369,206.9h-1.662l-4.557.107c-3.86.054-9.168.214-15.065.375s-11.205.268-15.065.322h-4.557l-1.233.054h1.233l4.557-.107c3.86-.054,9.168-.214,15.065-.375s11.205-.268,15.065-.322h6.112Z" transform="translate(-132.42 -172.623)" fill="#fff"/>
        <path id="Path_104" data-name="Path 104" d="M317.31,220.2a71.615,71.615,0,0,1-8.31,0A71.615,71.615,0,0,1,317.31,220.2Z" transform="translate(-156.634 -178.735)" fill="#fff"/>
        <path id="Path_105" data-name="Path 105" d="M307.261,172.8c0,.054-5.147,2.2-11.527,4.825s-11.634,4.664-11.634,4.557c0-.054,5.147-2.2,11.527-4.825C302.007,174.78,307.261,172.689,307.261,172.8Z" transform="translate(-145.084 -156.802)" fill="#fff"/>
        <path id="Path_106" data-name="Path 106" d="M288.688,175.8c0,.054-4.879,2.2-10.991,4.825s-11.044,4.664-11.1,4.611,4.879-2.2,10.991-4.825S288.635,175.745,288.688,175.8Z" transform="translate(-136.966 -158.196)" fill="#fff"/>
        <path id="Path_107" data-name="Path 107" d="M411.714,171.1c0,.054-5.147,2.2-11.58,4.825-6.38,2.627-11.634,4.664-11.634,4.557-.054-.054,5.147-2.2,11.58-4.825C406.46,173.083,411.66,171.046,411.714,171.1Z" transform="translate(-193.512 -156.016)" fill="#fff"/>
        <path id="Path_108" data-name="Path 108" d="M393.088,174.2c0,.054-4.879,2.2-10.991,4.825s-11.044,4.664-11.1,4.611,4.879-2.2,10.991-4.825C388.1,176.127,393.088,174.089,393.088,174.2Z" transform="translate(-185.394 -157.451)" fill="#fff"/>
        <path id="Path_109" data-name="Path 109" d="M393.9,206.865c0,.054-10.294.161-23,.268-12.653.054-23,.107-23,0s10.294-.161,23-.268C383.553,206.812,393.9,206.812,393.9,206.865Z" transform="translate(-174.679 -172.589)" fill="#fff"/>
        <path id="Path_110" data-name="Path 110" d="M443.767,219.454c0,.054-2.9.161-6.434.161-3.538.054-6.434,0-6.434-.054s2.9-.161,6.434-.161S443.767,219.4,443.767,219.454Z" transform="translate(-213.18 -178.422)" fill="#fff"/>
        <path id="Path_111" data-name="Path 111" d="M65.373,213c-.107,0-.161.054-.268.054l-.8.107q-.563.08-1.287.161c-.483.107-1.072.161-1.662.268-1.233.214-2.681.536-4.289.965a48.21,48.21,0,0,0-5.147,1.716c-1.662.643-3.324,1.448-4.932,2.252-1.448.8-2.788,1.555-3.807,2.2a10.446,10.446,0,0,0-1.394.965c-.429.268-.751.536-1.072.751l-.643.483a1.172,1.172,0,0,1-.268.161,1.585,1.585,0,0,1,.214-.161l.643-.483c.268-.214.643-.483,1.019-.751.429-.268.858-.643,1.394-.965,1.072-.751,2.359-1.448,3.807-2.305a45.127,45.127,0,0,1,4.932-2.252,44.253,44.253,0,0,1,5.147-1.662,35.28,35.28,0,0,1,4.343-.911c.643-.107,1.179-.161,1.716-.268a12.436,12.436,0,0,1,1.287-.107l.8-.054C65.266,213,65.373,213,65.373,213Z" transform="translate(-31.76 -175.453)" fill="#fff"/>
        <path id="Path_112" data-name="Path 112" d="M233.607,190.888s-.161-.161-.483-.429a2.853,2.853,0,0,0-1.555-.643,6.636,6.636,0,0,0-2.52.268,20.035,20.035,0,0,0-7.881,4.021c-1.126.965-1.716,1.662-1.769,1.608a1.849,1.849,0,0,1,.429-.483A13.157,13.157,0,0,1,221.062,194,18.5,18.5,0,0,1,229,189.87a6.19,6.19,0,0,1,2.627-.214,2.988,2.988,0,0,1,1.608.751,2.332,2.332,0,0,1,.322.375A.166.166,0,0,1,233.607,190.888Z" transform="translate(-115.071 -164.6)" fill="#fff"/>
        <path id="Path_113" data-name="Path 113" d="M487.942,160.761a8.479,8.479,0,0,1-2.037.214,11.357,11.357,0,0,1-2.359-.268,19.394,19.394,0,0,1-3-.911q-1.608-.643-3.538-1.448l-1.984-.8c-.7-.268-1.394-.483-2.145-.751a86.392,86.392,0,0,0-9.7-2.627,108.724,108.724,0,0,0-18.121-2.252c-1.18-.054-2.2-.054-3.163-.107h-3.807l1.448-.054,2.359-.054c.911,0,1.984,0,3.163.054a109.275,109.275,0,0,1,18.175,2.2,76.523,76.523,0,0,1,9.7,2.681c.751.268,1.448.483,2.145.8l1.984.8c1.287.536,2.413,1.072,3.538,1.448a28,28,0,0,0,3,.965,16.67,16.67,0,0,0,2.359.322,13.064,13.064,0,0,0,1.448-.054l.375-.054Z" transform="translate(-216.288 -147.018)" fill="#263238"/>
        <path id="Path_114" data-name="Path 114" d="M74.354,311.5v.214a2.4,2.4,0,0,0,.054.59c.054.268,0,.59.054.965a5.725,5.725,0,0,0,.161,1.34,24.991,24.991,0,0,0,2.52,8.1,27.872,27.872,0,0,0,3.217,4.932l1.072,1.179a5.868,5.868,0,0,0,.536.59l.643.536a12.9,12.9,0,0,0,1.287,1.126l1.394,1.072a27.557,27.557,0,0,0,6.648,3.324,25.33,25.33,0,0,0,22.41-3.324l1.394-1.072,1.287-1.126.643-.536a6.119,6.119,0,0,1,.59-.59l1.072-1.179a26.47,26.47,0,0,0,3.217-4.879,25.4,25.4,0,0,0,2.52-8.1c.054-.429.107-.911.161-1.34,0-.375.054-.751.054-.965l.054-.59v1.555a11.289,11.289,0,0,1-.107,1.34,24.521,24.521,0,0,1-2.413,8.2,23.3,23.3,0,0,1-3.217,4.986l-1.072,1.233a3.072,3.072,0,0,1-.59.59l-.643.59c-.429.375-.858.8-1.287,1.179l-1.448,1.072a26.568,26.568,0,0,1-6.755,3.378,25.441,25.441,0,0,1-15.977,0,26.569,26.569,0,0,1-6.755-3.378l-1.448-1.072c-.483-.375-.858-.8-1.287-1.179l-.643-.59a6.118,6.118,0,0,0-.59-.59l-1.072-1.233a30.433,30.433,0,0,1-3.217-4.986,24.521,24.521,0,0,1-2.413-8.2,11.285,11.285,0,0,1-.107-1.34v-1.555A.483.483,0,0,0,74.354,311.5Z" transform="translate(-47.764 -221.144)" fill="#455a64"/>
      </g>
    </g>
  </g>
</svg>
